<svg xmlns="http://www.w3.org/2000/svg" xmlns:xlink="http://www.w3.org/1999/xlink">
	<symbol id="logo-h" viewBox="0 0 1157.5774 175.6643">
		<circle cx="87.832" cy="87.832" r="87.832" fill="#fff" opacity=".875"/>
		<path fill="#353535" d="M19.01 0s-3.977.964-3.977 7.98c0 19.073 3.518 59.149 3.518 68.227 0 6.119-2.024 7.377-2.025 16.06 0 9.931 10.895 21.252 10.895 21.252L13.061 133.7a87.832 87.832 0 0 0 49.759 38.306c.275.077.56.147.837.223a87.832 87.832 0 0 0 10.324 2.246c.746.122 1.486.253 2.244.358a87.832 87.832 0 0 0 11.607.83 87.832 87.832 0 0 0 11.608-.83c.758-.105 1.497-.236 2.244-.358a87.832 87.832 0 0 0 10.323-2.246c.278-.076.563-.146.838-.223a87.832 87.832 0 0 0 49.759-38.306l-14.361-20.182s10.895-11.32 10.895-21.252c0-8.683-2.025-9.941-2.025-16.06 0-9.078 3.518-49.154 3.518-68.228C160.63.964 156.654 0 156.654 0c-15.65.13-37.01 22.844-37.01 22.844s-15.662-4.834-31.812-4.834-31.811 4.834-31.811 4.834S34.66.131 19.01 0z"/>
		<path fill="#404040" d="M36.185 91.568s2.71 3.014 6.986 6.427c-4.233-3.438-6.986-6.427-6.986-6.427zm103.295 0s-2.753 2.989-6.987 6.427c4.277-3.413 6.987-6.427 6.987-6.427zM43.286 98.09c5.758 4.656 14.215 10.096 22.346 10.096 15.413 0 19.564-4.83 19.564-4.83l-.454-.009s-6.367 4.255-19.278 4.255c-8.372 0-16.59-5.073-22.178-9.512zm89.092 0c-5.588 4.44-13.806 9.512-22.178 9.512-12.91 0-19.278-4.255-19.278-4.255l-.453.008s4.15 4.831 19.563 4.831c8.132 0 16.589-5.44 22.346-10.095z"/>
		<path fill="#282828" d="M24.6 89.964c-1.428-.007-2.422.654-2.422 2.234 0 28.968 49.067 45.095 65.654 45.095v-8.24c-31.574 0-53.088-16.832-53.088-30.136 0-4.555-6.492-8.936-10.143-8.953zm126.464 0c-3.652.017-10.143 4.398-10.143 8.953 0 13.304-21.514 30.136-53.089 30.136v8.24c16.587 0 65.654-16.127 65.654-45.095 0-1.58-.994-2.241-2.422-2.234z"/>
		<path fill="#222" d="M41.5 82.191s17.07 16.135 38.38 16.135v-1.217C58.46 97.597 41.5 82.19 41.5 82.19Zm92.664 0S117.205 97.597 95.785 97.11v1.217c21.31 0 38.379-16.135 38.379-16.135z"/>
		<path fill="#454545" d="M56.749 94.57s12.587 9.891 28.3 9.891v-1.097c-15.795.3-28.3-8.794-28.3-8.794zm62.167 0s-12.505 9.094-28.3 8.794v1.097c15.713 0 28.3-9.891 28.3-9.891z"/>
		<path fill="#404040" d="M41.056 96.148s19.566 9.014 43.993 9.014v-1.096c-24.553.299-43.993-7.918-43.993-7.918zm93.552 0s-19.44 8.217-43.992 7.918v1.096c24.426 0 43.992-9.014 43.992-9.014z"/>
		<path fill="#4d4d4d" d="M27.339 93.321s3.224 3.04 8.31 6.47c-5.035-3.456-8.31-6.47-8.31-6.47zm120.987 0s-3.248 2.987-8.243 6.423c5.045-3.41 8.243-6.423 8.243-6.423zm-8.243 6.423c-6.6 4.463-16.364 9.61-26.321 9.61-15.241 0-22.758-6.008-22.758-6.008l-.535.008s4.9 6.584 23.094 6.584c9.668 0 19.721-5.516 26.52-10.193zm-104.36.098c6.796 4.656 16.78 10.096 26.379 10.096 18.194 0 23.094-6.584 23.094-6.584l-.536-.008s-7.516 6.008-22.757 6.008c-9.883 0-19.584-5.073-26.18-9.512z"/>
		<path fill="#2e2e2e" d="M87.832 30.214c-23.445 0-39.687 4.134-39.687 7.615-.28 1.948 4.374 6.244 9.406 6.244 4.788 0 16.717-2.437 30.281-2.437zm0 0v11.422c13.565 0 25.493 2.437 30.282 2.437 5.032 0 9.685-4.296 9.405-6.244 0-3.481-16.242-7.615-39.687-7.615z"/>
		<path fill="#282828" d="m17.022 4.477 2.037 68.131s11.537-37.52 19.068-37.52l-5.353-8.681 9.33-.152S28.123 5.93 17.022 4.477zm141.62 0c-11.1 1.454-25.081 21.778-25.081 21.778l9.33.152-5.354 8.68c7.53 0 19.068 37.521 19.068 37.521z"/>
		<path fill="#242424" d="M51.28 67.07c-3.864 0-6.424 3.846-6.424 7.321 0 18.018 39.153 16.097 39.153 31.732 0 6.492-12.847 6.025-12.847 6.025s5.715 6.606 16.67 6.534c10.955-.073 16.67-6.534 16.67-6.534s-12.846.467-12.846-6.025c0-15.635 39.152-13.714 39.152-31.732 0-3.475-2.56-7.322-6.424-7.322-28.287 0-20.564 25.686-36.551 25.686v.004-.004c-15.988 0-8.266-25.686-36.553-25.686z"/>
		<path fill="#999" d="M56.05 69.077a12.95 8.497 27.78 0 0-7.483 6.38A12.95 8.497 27.78 0 0 60.69 87.785a12.95 8.497 27.78 0 0 12.123-5.828A12.95 8.497 27.78 0 0 60.69 69.63a12.95 8.497 27.78 0 0-4.64-.553zm63.564 0a8.497 12.95 62.22 0 0-4.64.553 8.497 12.95 62.22 0 0-12.123 12.326 8.497 12.95 62.22 0 0 12.124 5.828 8.497 12.95 62.22 0 0 12.123-12.326 8.497 12.95 62.22 0 0-7.484-6.38z"/>
		<path fill="#060606" d="M87.832 18.01c-16.15 0-31.81 4.834-31.81 4.834s-9.559 3.41-13.918 3.41l-9.33.153 5.353 8.68c-7.53 0-19.068 37.521-19.068 37.521s11.382-35.994 25.249-35.994l-6.18-6.91c15.656 0 33.742-7.874 49.704-7.874 15.963 0 34.048 7.874 49.705 7.874l-6.18 6.91c13.866 0 25.248 35.994 25.248 35.994s-11.537-37.52-19.068-37.52l5.353-8.681-9.329-.152c-4.36 0-13.918-3.41-13.918-3.41s-15.661-4.835-31.81-4.835z"/>
		<path d="m87.832 98.005-4.94.054-.544 2.387 1.307 2.657 2.505 1.085.254 6.084s-.237 3.167-4.854 3.167c-9.22 0-13.845-3.044-13.845-3.044s6.868 4.596 15.505 4.596c4.51 0 4.612-4.719 4.612-4.719zm0 0v12.267s.103 4.72 4.612 4.72c8.637 0 15.505-4.597 15.505-4.597s-4.625 3.044-13.845 3.044c-4.617 0-4.854-3.167-4.854-3.167l.254-6.084 2.506-1.085 1.307-2.657-.545-2.387z"/>
		<path fill="#2e2e2e" d="M32.546 114.05s24.589 23.243 55.286 23.243c30.697 0 55.287-23.242 55.287-23.242l7.741 10.744s-28.447 26.62-63.028 26.62c-34.58 0-62.939-26.62-62.939-26.62z"/>
		<path fill="#2f2f2f" d="m73.994 42.364-2.955.306.764 6.9 1.01 4.087v2.724l2.568 8.172 3.261-.315-.736-4.551 1.473-4.459zm27.676 0-5.384 12.864 1.473 4.459-.737 4.551 3.262.315 2.567-8.172v-2.724l1.01-4.086.764-6.901z"/>
		<path fill="#060606" d="M19.01 0s-3.976.964-3.976 7.98c0 19.073 3.517 59.148 3.517 68.227l.508-3.599-2.037-68.131c0-1.251 4.14-1.64 4.14-1.64 9.79 0 34.86 20.007 34.86 20.007S34.66.131 19.01 0zm137.644 0c-15.65.13-37.01 22.844-37.01 22.844s25.068-20.006 34.86-20.006c0 0 4.139.388 4.139 1.639l-2.038 68.131.508 3.599c0-9.079 3.518-49.154 3.518-68.228 0-7.015-3.977-7.979-3.977-7.979Z"/>
		<path fill="#2f2f2f" d="m63.678 46.473-1.835.71-.031 3.94 1.298 2.335-1.298.768v.895l1.879 2.472-3 1.21 1.12 3.472 1.51 1.42 3.698-.421 2.905-.79-.687-3.155-1.637-1.894 2.06-.631.571-1.396-2.249-3.047v-1.725l-1.638-2.437zm48.308 0-2.666 1.726-1.638 2.437v1.725l-2.249 3.047.572 1.396 2.06.631-1.638 1.894-.687 3.156 2.906.789 3.697.42 1.51-1.42 1.122-3.471-3.002-1.21 1.88-2.472v-.895l-1.298-.768 1.298-2.335-.032-3.94z"/>
		<path fill="#060606" d="M157.113 76.207v15.534c0 7.69-16.153 31.24-16.153 31.24l7.283-9.462s10.895-11.363 10.895-21.252c0-7.51-2.025-9.941-2.025-16.06z"/>
		<path fill="#4d4d4d" d="M48.133 49.135s25.646 4.469 25.646 28.381l.36-.238c0-23.82-26.006-28.143-26.006-28.143zm79.399 0s-26.007 4.323-26.007 28.143l.36.238c0-23.912 25.647-28.381 25.647-28.381z"/>
		<path fill="#404040" d="M47.527 54.81c-.711-.01-1.117.012-1.117.012s25.646-1.218 25.646 22.694l.36-.238c0-20.842-19.911-22.404-24.889-22.468zm80.61 0c-4.977.064-24.889 1.626-24.889 22.468l.36.238c0-23.912 25.647-22.694 25.647-22.694s-.406-.021-1.117-.012z"/>
		<path fill="#404040" d="M56.749 46.057s18.753 7 18.753 34.965l.36-.238c0-28.063-19.113-34.727-19.113-34.727zm62.167 0s-19.114 6.664-19.114 34.727l.36.238c0-27.965 18.754-34.965 18.754-34.965z"/>
		<path fill="gray" d="m43.745 82.746-.594.322.741 1.381.556.77.23.57 1.226 1.491.658-.35-.537-.89-.067-1.064zm88.175 0-2.214 2.23-.066 1.063-.538.891.658.35 1.227-1.49.23-.572.555-.769.742-1.381zM47.68 88.481l-1.51.243.23.572 1.227 1.49.658-.35-.538-.89zm80.302 0-.066 1.064-.538.891.658.35 1.227-1.49.229-.572zm-105.06 2.02-1.227 1.224-.23.522 1.577-.48.538-.773zm129.819 0-.658.493.538.774 1.576.479-.23-.522zM21.224 94.82l.23.662 1.227 1.975.657-.09-.538-1.103zm133.216 0-1.576 1.444-.538 1.103.658.09 1.227-1.975zM68.356 34.35c0 .72.2 2.424.298 3.219-.485-.556-1.14-.955-1.14-.955 0 .953-.143 2.134-.143 2.134l.196-.11s.216-.645.216-1.362c0 0 .809.547.809 1.365l.573.02c0-.265-.107-.527-.267-.771l.006-.003s-.208-1.82-.208-2.538c0 0 2.136 2.576 2.136 3.994l.809.02c0-1.042-3.285-5.012-3.285-5.012zm38.953 0s-3.285 3.97-3.285 5.012l.809-.02c0-1.417 2.136-3.994 2.136-3.994 0 .718-.209 2.538-.209 2.538l.006.003c-.159.244-.266.507-.266.771l.573-.02c0-.817.809-1.365.809-1.365 0 .718.216 1.363.216 1.363l.196.11s-.143-1.181-.143-2.134c0 0-.655.4-1.14.955.098-.795.298-2.499.298-3.219z"/>
		<path fill="#2e2e2e" d="M76.571 82.29c0 5.996 5.58 10.465 11.261 10.465v-6.664c-7.953 0-11.26-3.8-11.26-3.8zm22.523 0s-3.309 3.801-11.262 3.801v6.664c5.682 0 11.262-4.47 11.262-10.465z"/>
		<path fill="#1a1a1a" d="m74.973 81.948-2.36 1.596 9.244 13.266-4.088-10.33zm25.719 0-2.796 4.532-4.089 10.33 9.244-13.266z"/>
		<path fill="#2e2e2e" d="M35.915 72.272c-5.26-.078-13.677 3.794-13.677 10.119 0 9.565 12.566 8.603 12.566 4.042 0-6.492 5.24-8.01 5.24-11.464 0-1.81-1.738-2.661-4.13-2.697zm103.835 0c-2.391.036-4.13.888-4.13 2.697 0 3.455 5.24 4.972 5.24 11.464 0 4.561 12.566 5.523 12.566-4.042 0-6.325-8.416-10.197-13.676-10.119z"/>
		<path fill="#060606" d="M51.28 67.07c-3.864 0-6.423 3.846-6.423 7.321 0 0 6.093-2.187 16.123-2.187 3.748 0 11.197 6.679 11.197 6.679s1.004 2.505.436 4.66l2.36-1.595 2.796 4.532s-2.56-19.41-26.49-19.41zm73.105 0c-23.93 0-26.489 19.41-26.489 19.41l2.796-4.532 2.36 1.596c-.569-2.156.436-4.661.436-4.661s7.448-6.679 11.196-6.679c10.03 0 16.124 2.187 16.124 2.187 0-3.475-2.56-7.322-6.423-7.322zM18.551 76.207v15.534c0 7.69 16.153 31.24 16.153 31.24l-7.282-9.462s-10.896-11.363-10.896-21.252c0-7.51 2.025-9.941 2.025-16.06z"/>
		<path fill="#212121" d="M32.546 114.05s24.589 23.243 55.286 23.243c30.697 0 55.287-23.242 55.287-23.242s-24.427 21.49-55.287 21.49c-30.622 0-55.286-21.49-55.286-21.49z"/>
		<path d="M60.98 69.61a9.25 8.783 0 0 0-9.25 8.782 9.25 8.783 0 0 0 9.25 8.783 9.25 8.783 0 0 0 9.25-8.783 9.25 8.783 0 0 0-9.25-8.783zm53.704 0a9.25 8.783 0 0 0-9.25 8.782 9.25 8.783 0 0 0 9.25 8.783 9.25 8.783 0 0 0 9.25-8.783 9.25 8.783 0 0 0-9.25-8.783z"/>
		<path fill="#232323" d="M55.005 78.392a9.25 8.783 0 0 0-3.252.584 9.25 8.783 0 0 0 9.227 8.199 9.25 8.783 0 0 0 3.233-.578 9.25 8.783 0 0 0-9.208-8.205zm65.655 0a9.25 8.783 0 0 0-9.208 8.205 9.25 8.783 0 0 0 3.232.578 9.25 8.783 0 0 0 9.228-8.199 9.25 8.783 0 0 0-3.252-.584z"/>
		<path fill="#e2e2e2" d="M63.053 78.971a1.36 1.16 0 0 0-1.36 1.16 1.36 1.16 0 0 0 1.36 1.16 1.36 1.16 0 0 0 1.36-1.16 1.36 1.16 0 0 0-1.36-1.16zm49.559 0a1.36 1.16 0 0 0-1.361 1.16 1.36 1.16 0 0 0 1.361 1.16 1.36 1.16 0 0 0 1.36-1.16 1.36 1.16 0 0 0-1.36-1.16zm-51.798 5.304a.606.597 0 0 0-.607.597.606.597 0 0 0 .607.597.606.597 0 0 0 .605-.597.606.597 0 0 0-.605-.597zm49.729 0a.606.597 0 0 0-.606.597.606.597 0 0 0 .606.597.606.597 0 0 0 .606-.597.606.597 0 0 0-.606-.597zm-22.71 14.552a.602.602 0 0 0-.607.597c0 .33.271.597.606.597a.602.602 0 0 0 .606-.597.602.602 0 0 0-.606-.597z"/>
		<path fill="#060606" d="M27.421 113.519 13.061 133.7a87.832 87.832 0 0 0 1.743 2.766l14.175-20.925Zm120.822 0-1.558 2.023 14.176 20.925a87.832 87.832 0 0 0 1.743-2.766z"/>
		<path fill="gray" d="m21.164 142.632 6.741 2.05-2.804 3.481 4.19 2.343-3.247-2.782 2.598-3.274-6.13-2.097 10.034-7.138-11.381 7.417zM154.5 142.632l-6.74 2.05 2.803 3.481-4.19 2.343 3.248-2.782-2.598-3.274 6.13-2.097-10.035-7.138 11.382 7.417z"/>
		<path fill="var(--color-2)" d="m 213.7867,13.213137 h 27.46375 v 4.365625 h -22.225 v 19.05 h 18.25625 v 4.445 h -18.25625 v 23.495 h -5.23875 z m 42.86239,0 h 27.46375 v 4.365625 h -22.225 v 18.176875 h 18.25625 v 4.445 h -18.25625 v 20.16125 h 23.89188 v 4.206875 h -29.13063 z m 58.4199,23.65375 q 5.47688,0 8.5725,-2.619375 3.175,-2.69875 3.175,-7.699375 0,-2.69875 -0.71437,-4.365625 -0.71438,-1.74625 -2.14313,-2.778125 -1.42875,-1.031875 -3.4925,-1.42875 -1.98437,-0.396875 -4.60375,-0.396875 h -8.09625 v 19.288125 z m -12.54125,-23.65375 h 14.68438 q 3.01625,0 5.79437,0.635 2.8575,0.635 5.00063,2.143125 2.14312,1.508125 3.41312,4.048125 1.27,2.54 1.27,6.35 0,2.619375 -0.87312,5.08 -0.87313,2.38125 -2.54,4.28625 -1.5875,1.905 -3.88938,3.254375 -2.2225,1.27 -4.92125,1.825625 l 15.5575,23.733125 h -6.35 l -15.39875,-23.33625 h -6.50875 v 23.33625 h -5.23875 z m 49.68875,0 h 5.23875 v 51.355625 h -5.23875 z m 27.38422,0 h 27.46375 v 4.365625 h -22.225 v 18.176875 h 18.25625 v 4.445 h -18.25625 v 20.16125 h 23.89187 v 4.206875 h -29.13062 z m 45.87865,0 h 8.17562 l 26.19375,43.894375 h 0.15875 V 13.213137 h 4.92125 v 51.355625 h -6.27062 l -28.01938,-46.6725 h -0.23812 v 46.6725 h -4.92125 z m 61.19809,0 h 5.23875 v 22.86 h 26.67 v -22.86 h 5.23875 V 64.568762 H 518.5862 V 40.359387 h -26.67 v 24.209375 h -5.23875 z m 81.43861,30.48 -7.77875,-23.574375 h -0.55562 l -7.9375,23.574375 z m -13.17625,-23.8125 2.06375,-6.6675 h 5.87375 l 18.0975,51.355625 h -5.63562 l -5.63563,-16.1925 h -19.12937 l -5.55625,16.1925 h -5.3975 z m 40.56045,-6.6675 h 5.23875 v 27.305 q 0,4.365625 0.3175,8.09625 0.39688,3.65125 1.74625,6.35 1.42875,2.69875 4.1275,4.206875 2.77813,1.508125 7.62,1.508125 4.52438,0 7.22313,-1.42875 2.69875,-1.42875 4.04812,-3.81 1.42875,-2.460625 1.82563,-5.715 0.47625,-3.254375 0.47625,-6.82625 v -29.68625 h 5.08 v 29.845 q 0,4.206875 -0.635,8.255 -0.635,3.96875 -2.69875,7.14375 -1.98438,3.175 -5.79438,5.159375 -3.81,1.905 -10.16,1.905 -5.63562,0 -9.28687,-1.508125 -3.57188,-1.5875 -5.63563,-4.365625 -1.98437,-2.8575 -2.77812,-6.82625 -0.71438,-3.96875 -0.71438,-8.810625 z m 57.07059,43.02125 q 0.55562,0.555625 1.82562,1.349375 1.34938,0.79375 3.09563,1.5875 1.82562,0.714375 3.96875,1.27 2.2225,0.555625 4.52437,0.555625 5.63563,0 8.65188,-2.38125 3.09562,-2.460625 3.09562,-7.46125 0,-2.69875 -1.03187,-4.524375 -0.9525,-1.825625 -2.61938,-3.095625 -1.66687,-1.349375 -3.81,-2.2225 -2.14312,-0.873125 -4.36562,-1.74625 -2.54,-0.9525 -4.92125,-1.984375 -2.30188,-1.11125 -4.1275,-2.69875 -1.82563,-1.5875 -2.93688,-3.81 -1.11125,-2.2225 -1.11125,-5.318125 0,-3.413125 1.27,-5.953125 1.34938,-2.54 3.4925,-4.206875 2.2225,-1.666875 5.00063,-2.460625 2.8575,-0.873125 5.87375,-0.873125 3.81,0 7.38187,1.11125 3.65125,1.11125 6.0325,3.175 l -2.61937,3.571875 q -1.905,-1.349375 -4.60375,-2.301875 -2.61938,-1.031875 -6.42938,-1.031875 -5.00062,0 -7.54062,2.301875 -2.54,2.2225 -2.54,5.715 0,2.143125 0.635,3.65125 0.71437,1.42875 2.14312,2.619375 1.42875,1.190625 3.4925,2.2225 2.14313,0.9525 5.00063,2.143125 2.2225,0.873125 4.60375,1.984375 2.38125,1.11125 4.36562,2.778125 2.06375,1.666875 3.33375,4.1275 1.34938,2.38125 1.34938,5.87375 0,3.96875 -1.27,6.82625 -1.27,2.8575 -3.57188,4.7625 -2.2225,1.905 -5.3975,2.778125 -3.175,0.9525 -6.985,0.9525 -2.61937,0 -5.00062,-0.47625 -2.38125,-0.47625 -4.445,-1.27 -1.98438,-0.79375 -3.65125,-1.666875 -1.5875,-0.873125 -2.69875,-1.74625 z"/>
		<path fill="var(--color-2)" d="m 249.74342,110.30474 q -3.38666,-1.69333 -7.30248,-2.64582 -3.80999,-1.05833 -7.51414,-1.05833 -4.44499,0 -6.56165,1.69333 -2.11666,1.69332 -2.11666,4.44498 0,3.38666 2.75166,5.18582 2.75166,1.69333 7.93748,3.59832 3.80998,1.37583 7.30247,2.96332 3.59832,1.48167 6.24415,3.80999 2.75166,2.32833 4.33915,5.71498 1.69333,3.28083 1.69333,8.14915 0,5.60914 -1.90499,9.84246 -1.79916,4.23332 -5.07999,7.09082 -3.28082,2.75165 -7.83164,4.12748 -4.55082,1.37583 -9.9483,1.37583 -3.70416,0 -7.30248,-0.635 -3.59832,-0.52916 -6.77331,-1.37583 -3.17499,-0.95249 -5.71498,-2.01082 -2.53999,-1.16417 -4.12749,-2.32833 l 5.60915,-11.95913 q 1.58749,0.9525 3.59832,1.905 2.01083,0.84666 4.33915,1.58749 2.43416,0.635 4.97416,1.16416 2.64582,0.42334 5.18581,0.42334 9.84247,0 9.84247,-7.61998 0,-3.70415 -2.75166,-5.71498 -2.64582,-2.11666 -7.19664,-3.59832 -4.33915,-1.37583 -8.14914,-2.85749 -3.70416,-1.5875 -6.45581,-3.80999 -2.64583,-2.2225 -4.23332,-5.39749 -1.48167,-3.28082 -1.48167,-8.25497 0,-5.07998 1.79916,-8.88997 1.905,-3.91582 5.07999,-6.455808 3.28082,-2.645825 7.51414,-3.915821 4.33915,-1.269996 9.20747,-1.269996 5.07999,0 10.5833,1.375829 5.60915,1.375829 9.73664,3.704155 z m 70.90809,0.42333 q -4.02165,-2.01082 -7.93747,-3.28082 -3.80999,-1.26999 -8.57247,-1.26999 -4.12749,0 -7.61998,1.37582 -3.38666,1.27 -5.92665,4.02166 -2.53999,2.75166 -3.91582,6.98498 -1.37583,4.12748 -1.37583,9.73663 0,4.65665 0.9525,8.88997 1.05833,4.23332 3.38665,7.40831 2.32833,3.17499 5.92665,5.07999 3.70416,1.90499 9.10164,1.90499 5.07998,0 9.10164,-1.48166 4.02165,-1.48166 8.04331,-4.02165 l 5.50331,11.11246 q -4.76248,3.38666 -10.68913,5.39748 -5.82082,2.01083 -13.12329,2.01083 -8.99581,0 -15.45162,-2.64582 -6.45581,-2.75166 -10.5833,-7.51415 -4.12749,-4.76248 -6.03248,-11.21829 -1.905,-6.56165 -1.905,-14.18163 0,-7.72581 2.2225,-14.28745 2.22249,-6.66748 6.56164,-11.42996 4.33916,-4.868317 10.79497,-7.514142 6.56165,-2.751658 15.02829,-2.751658 7.30247,0 13.12329,2.11666 5.92665,2.010827 9.20747,4.444986 z m 59.79556,-15.874939 h 14.81662 V 163.32708 H 380.44707 V 135.8105 h -25.18825 v 27.51658 H 340.4422 V 94.853131 h 14.81662 v 27.410739 h 25.18825 z m 61.70047,0 h 15.02829 l 12.48829,49.847339 h 0.9525 l 10.47747,-49.953172 h 14.39329 l -15.76912,68.579782 h -18.09744 l -9.41914,-36.19489 h -0.635 l -9.84247,36.19489 H 424.79093 L 408.28098,94.853131 h 14.71079 l 11.2183,49.529839 h 0.74083 l 11.00663,-36.51239 z m 81.80877,39.793199 h 15.45162 l -6.98498,-25.82325 h -0.635 z m 17.46244,-39.793199 22.22493,68.473949 H 547.6629 l -5.29165,-16.29829 h -21.27243 l -5.39748,16.29829 h -15.34579 l 19.26161,-57.99649 3.06915,-10.477459 z m 56.30308,30.374069 q 4.44499,0 6.98498,-2.43416 2.53999,-2.43416 2.53999,-7.19665 0,-5.18581 -2.53999,-6.98498 -2.53999,-1.90499 -6.98498,-1.90499 h -6.77331 v 18.52078 z m -1.5875,11.42996 h -5.07998 v 26.66992 H 576.1319 V 94.853131 h 24.44742 q 4.44499,0 8.46664,0.952497 4.12749,0.846664 7.30248,3.069157 3.17499,2.222495 4.97415,6.032475 1.90499,3.70415 1.90499,9.52497 0,6.98498 -3.38665,11.8533 -3.38666,4.86831 -8.99581,7.51414 l 17.77995,29.52741 h -16.61579 z m 42.33316,16.08662 33.33739,-44.97903 v -0.42333 H 639.84332 V 94.853131 h 51.6465 v 10.265799 l -33.44323,45.08485 v 0.42334 h 33.44323 v 12.69996 h -53.02233 z m 68.79133,-57.890649 h 42.3332 v 12.805789 h -27.51658 v 14.49912 h 22.7541 V 134.858 h -22.85993 v 15.55745 h 29.63324 v 12.91163 h -44.34403 z m 80.75052,30.374069 q 4.44498,0 6.98497,-2.43416 2.54,-2.43416 2.54,-7.19665 0,-5.18581 -2.54,-6.98498 -2.53999,-1.90499 -6.98497,-1.90499 h -6.77332 v 18.52078 z m -1.5875,11.42996 h -5.07998 v 26.66992 H 766.4194 V 94.853131 h 24.44743 q 4.44498,0 8.46664,0.952497 4.12748,0.846664 7.30247,3.069157 3.17499,2.222495 4.97415,6.032475 1.905,3.70415 1.905,9.52497 0,6.98498 -3.38666,11.8533 -3.38665,4.86831 -8.9958,7.51414 l 17.77994,29.52741 h -16.61578 z m 82.65531,-9.3133 h 0.21167 L 886.2221,102.7906 q 1.16416,-1.69332 2.01082,-3.809982 0.9525,-2.11666 1.69333,-4.127487 h 16.93328 v 1.164163 l -22.01326,31.432396 23.28326,35.87739 h -16.93328 l -21.90743,-33.9724 h -0.21167 v 33.9724 H 854.26053 V 94.853131 h 14.81662 z m 68.79145,7.30247 h 15.45162 l -6.98498,-25.82325 h -0.635 z m 17.46245,-39.793199 22.22493,68.473949 h -15.98079 l -5.29165,-16.29829 h -21.27243 l -5.39748,16.29829 h -15.34579 l 19.26161,-57.99649 3.06916,-10.477459 z m 21.27216,12.805789 V 94.853131 h 55.87979 v 12.805789 h -20.6374 v 55.66816 h -14.81662 v -55.66816 z m 69.32049,-12.805789 h 42.3332 v 12.805789 h -27.5166 v 14.49912 h 22.7541 V 134.858 h -22.8599 v 15.55745 h 29.6332 v 12.91163 h -44.344 z m 80.7505,30.374069 q 4.445,0 6.985,-2.43416 2.54,-2.43416 2.54,-7.19665 0,-5.18581 -2.54,-6.98498 -2.54,-1.90499 -6.985,-1.90499 h -6.7733 v 18.52078 z m -1.5875,11.42996 h -5.08 v 26.66992 h -14.9224 V 94.853131 h 24.4474 q 4.445,0 8.4666,0.952497 4.1275,0.846664 7.3025,3.069157 3.175,2.222495 4.9742,6.032475 1.9049,3.70415 1.9049,9.52497 0,6.98498 -3.3866,11.8533 -3.3867,4.86831 -8.9958,7.51414 l 17.7799,29.52741 h -16.6158 z"/>
	</symbol>

	<symbol id="logo-m" viewBox="0 0 158.75 175.664">
	  <path fill="#353535" d="M10.553 0S6.576.964 6.576 7.98c0 19.073 3.518 59.149 3.518 68.227 0 6.119-2.025 7.377-2.025 16.06 0 9.931 10.895 21.252 10.895 21.252L0 140.17l24.47 18.58s24.956 16.914 54.905 16.914 54.905-16.914 54.905-16.914l24.47-18.58-18.964-26.651s10.895-11.32 10.895-21.252c0-8.683-2.025-9.941-2.025-16.06 0-9.078 3.518-49.154 3.518-68.228 0-7.015-3.977-7.979-3.977-7.979-15.65.13-37.011 22.844-37.011 22.844S95.525 18.01 79.375 18.01s-31.811 4.834-31.811 4.834S26.204.131 10.553 0z"/>
	  <path fill="#404040" d="M27.727 91.568s2.711 3.014 6.987 6.427c-4.234-3.438-6.987-6.427-6.987-6.427zm103.296 0s-2.753 2.989-6.987 6.427c4.276-3.413 6.987-6.427 6.987-6.427zM34.829 98.09c5.758 4.656 14.215 10.096 22.346 10.096 15.413 0 19.563-4.83 19.563-4.83l-.453-.009s-6.367 4.255-19.278 4.255c-8.372 0-16.59-5.073-22.178-9.512zm89.092 0c-5.588 4.44-13.806 9.512-22.178 9.512-12.91 0-19.278-4.255-19.278-4.255l-.453.008s4.15 4.831 19.563 4.831c8.131 0 16.589-5.44 22.346-10.095z"/>
	  <path fill="#282828" d="M16.144 89.964c-1.43-.007-2.423.654-2.423 2.234 0 28.968 49.067 45.095 65.654 45.095v-8.24c-31.574 0-53.088-16.832-53.088-30.136 0-4.555-6.492-8.936-10.143-8.953zm126.462 0c-3.651.017-10.143 4.398-10.143 8.953 0 13.304-21.513 30.136-53.088 30.136v8.24c16.587 0 65.654-16.127 65.654-45.095 0-1.58-.994-2.241-2.423-2.234z"/>
	  <path fill="#222" d="M33.043 82.191s17.07 16.135 38.38 16.135v-1.217c-21.42.488-38.38-14.918-38.38-14.918zm92.664 0S108.748 97.597 87.328 97.11v1.217c21.31 0 38.379-16.135 38.379-16.135z"/>
	  <path fill="#454545" d="M48.292 94.57s12.586 9.891 28.3 9.891v-1.097c-15.795.3-28.3-8.794-28.3-8.794zm62.167 0s-12.506 9.094-28.3 8.794v1.097c15.713 0 28.3-9.891 28.3-9.891z"/>
	  <path fill="#404040" d="M32.6 96.148s19.565 9.014 43.992 9.014v-1.096c-24.553.299-43.993-7.918-43.993-7.918zm93.551 0s-19.44 8.217-43.993 7.918v1.096c24.427 0 43.993-9.014 43.993-9.014z"/>
	  <path fill="#4d4d4d" d="M18.882 93.321s3.223 3.04 8.31 6.47c-5.035-3.456-8.31-6.47-8.31-6.47zm120.987 0s-3.248 2.987-8.243 6.423c5.045-3.41 8.243-6.423 8.243-6.423zm-8.243 6.423c-6.6 4.463-16.364 9.61-26.322 9.61-15.24 0-22.757-6.008-22.757-6.008l-.535.008s4.9 6.584 23.094 6.584c9.668 0 19.72-5.516 26.52-10.193zm-104.361.098c6.797 4.656 16.78 10.096 26.38 10.096 18.194 0 23.093-6.584 23.093-6.584l-.535-.008s-7.517 6.008-22.757 6.008c-9.883 0-19.584-5.073-26.181-9.512z"/>
	  <path fill="#2e2e2e" d="M79.375 30.214c-23.445 0-39.687 4.134-39.687 7.615-.28 1.948 4.373 6.244 9.405 6.244 4.79 0 16.718-2.437 30.282-2.437zm0 0v11.422c13.564 0 25.493 2.437 30.282 2.437 5.032 0 9.685-4.296 9.405-6.244 0-3.481-16.242-7.615-39.687-7.615z"/>
	  <path fill="#282828" d="m8.565 4.477 2.037 68.131s11.537-37.52 19.068-37.52l-5.353-8.681 9.33-.152S19.666 5.93 8.565 4.477zm141.62 0c-11.1 1.454-25.081 21.778-25.081 21.778l9.329.152-5.353 8.68c7.53 0 19.068 37.521 19.068 37.521z"/>
	  <path fill="#242424" d="M42.823 67.07c-3.864 0-6.424 3.846-6.424 7.321 0 18.018 39.152 16.097 39.152 31.732 0 6.492-12.846 6.025-12.846 6.025s5.715 6.606 16.67 6.534c10.955-.073 16.67-6.534 16.67-6.534s-12.846.467-12.846-6.025c0-15.635 39.152-13.714 39.152-31.732 0-3.475-2.56-7.322-6.424-7.322-28.287 0-20.564 25.686-36.551 25.686v.004l-.001-.004c-15.987 0-8.265-25.686-36.552-25.686z"/>
	  <path fill="#999" d="M47.594 69.077a12.95 8.497 27.78 0 0-7.484 6.38 12.95 8.497 27.78 0 0 12.123 12.327 12.95 8.497 27.78 0 0 12.123-5.828A12.95 8.497 27.78 0 0 52.233 69.63a12.95 8.497 27.78 0 0-4.64-.553zm63.563 0a8.497 12.95 62.22 0 0-4.64.553 8.497 12.95 62.22 0 0-12.123 12.326 8.497 12.95 62.22 0 0 12.123 5.828 8.497 12.95 62.22 0 0 12.123-12.326 8.497 12.95 62.22 0 0-7.483-6.38z"/>
	  <path fill="#060606" d="M79.375 18.01c-16.15 0-31.81 4.834-31.81 4.834s-9.559 3.41-13.918 3.41l-9.33.153 5.353 8.68c-7.53 0-19.068 37.521-19.068 37.521s11.382-35.994 25.249-35.994l-6.18-6.91c15.656 0 33.742-7.874 49.704-7.874 15.962 0 34.048 7.874 49.705 7.874l-6.18 6.91c13.866 0 25.248 35.994 25.248 35.994s-11.537-37.52-19.068-37.52l5.353-8.681-9.33-.152c-4.359 0-13.917-3.41-13.917-3.41S95.525 18.01 79.375 18.01z"/>
	  <path d="m79.375 98.005-4.94.054-.545 2.387 1.308 2.657 2.505 1.085.254 6.084s-.237 3.167-4.854 3.167c-9.22 0-13.845-3.044-13.845-3.044s6.868 4.596 15.505 4.596c4.51 0 4.612-4.719 4.612-4.719zm0 0v12.267s.103 4.72 4.612 4.72c8.637 0 15.504-4.597 15.504-4.597s-4.624 3.044-13.844 3.044c-4.617 0-4.854-3.167-4.854-3.167l.254-6.084 2.505-1.085 1.308-2.657-.545-2.387z"/>
	  <path fill="#2e2e2e" d="M24.089 114.05s24.589 23.243 55.286 23.243c30.697 0 55.287-23.242 55.287-23.242l7.741 10.744s-28.447 26.62-63.028 26.62c-34.58 0-62.939-26.62-62.939-26.62z"/>
	  <path fill="#2f2f2f" d="m65.537 42.364-2.955.306.764 6.9 1.01 4.087v2.724l2.568 8.172 3.26-.315-.736-4.551 1.474-4.459zm27.676 0-5.384 12.864 1.473 4.459-.737 4.551 3.262.315 2.567-8.172v-2.724l1.01-4.086.764-6.901z"/>
	  <path fill="#060606" d="M10.553 0S6.576.964 6.576 7.98c0 19.073 3.518 59.148 3.518 68.227l.508-3.599L8.565 4.477c0-1.251 4.139-1.64 4.139-1.64 9.791 0 34.86 20.007 34.86 20.007S26.204.131 10.553 0zm137.644 0c-15.65.13-37.01 22.844-37.01 22.844s25.068-20.006 34.86-20.006c0 0 4.138.388 4.138 1.639l-2.037 68.131.508 3.599c0-9.079 3.518-49.154 3.518-68.228 0-7.015-3.977-7.979-3.977-7.979z"/>
	  <path fill="#2f2f2f" d="m55.221 46.473-1.835.71-.032 3.94 1.299 2.335-1.299.768v.895l1.88 2.472-3.001 1.21 1.121 3.472 1.51 1.42 3.698-.421 2.905-.79-.687-3.155-1.637-1.894 2.06-.631.57-1.396-2.248-3.047v-1.725l-1.638-2.437zm48.308 0-2.666 1.726-1.638 2.437v1.725l-2.249 3.047.571 1.396 2.06.631-1.637 1.894-.687 3.156 2.905.789 3.698.42 1.51-1.42 1.121-3.471-3-1.21 1.879-2.472v-.895l-1.298-.768 1.298-2.335-.032-3.94z"/>
	  <path fill="#060606" d="M148.656 76.207v15.534c0 7.69-16.153 31.24-16.153 31.24l7.283-9.462s10.895-11.363 10.895-21.252c0-7.51-2.025-9.941-2.025-16.06z"/>
	  <path fill="#4d4d4d" d="M39.676 49.135s25.646 4.469 25.646 28.381l.36-.238c0-23.82-26.006-28.143-26.006-28.143zm79.399 0s-26.007 4.323-26.007 28.143l.36.238c0-23.912 25.647-28.381 25.647-28.381z"/>
	  <path fill="#404040" d="M39.07 54.81c-.711-.01-1.117.012-1.117.012s25.646-1.218 25.646 22.694l.36-.238c0-20.842-19.911-22.404-24.89-22.468zm80.61 0c-4.977.064-24.89 1.626-24.89 22.468l.361.238c0-23.912 25.647-22.694 25.647-22.694s-.406-.021-1.118-.012z"/>
	  <path fill="#404040" d="M48.292 46.057s18.753 7 18.753 34.965l.36-.238c0-28.063-19.113-34.727-19.113-34.727zm62.167 0s-19.114 6.664-19.114 34.727l.36.238c0-27.965 18.754-34.965 18.754-34.965z"/>
	  <path fill="gray" d="m35.288 82.746-.594.322.741 1.381.556.77.23.57 1.226 1.491.658-.35-.537-.89-.067-1.064zm88.174 0-2.213 2.23-.066 1.063-.538.891.658.35 1.227-1.49.229-.572.556-.769.741-1.381zm-84.238 5.735-1.51.243.23.572 1.227 1.49.658-.35-.538-.89zm80.302 0-.066 1.064-.538.891.657.35 1.228-1.49.229-.572zm-105.06 2.02-1.227 1.224-.23.522 1.577-.48.537-.773zm129.819 0-.658.493.537.774 1.577.479-.23-.522zM12.767 94.82l.23.662 1.226 1.975.658-.09-.538-1.103zm133.216 0-1.576 1.444-.538 1.103.658.09 1.227-1.975zM59.898 34.35c0 .72.2 2.424.299 3.219-.485-.556-1.14-.955-1.14-.955 0 .953-.143 2.134-.143 2.134l.196-.11s.216-.645.216-1.362c0 0 .808.547.808 1.365l.574.02c0-.265-.108-.527-.267-.771l.006-.003s-.208-1.82-.208-2.538c0 0 2.136 2.576 2.136 3.993l.809.02c0-1.04-3.285-5.011-3.285-5.011zm38.954 0s-3.285 3.97-3.285 5.012l.809-.02c0-1.417 2.136-3.994 2.136-3.994 0 .718-.209 2.538-.209 2.538l.006.003c-.16.244-.266.507-.266.771l.573-.02c0-.817.809-1.365.809-1.365 0 .718.215 1.363.215 1.363l.197.11s-.143-1.181-.143-2.134c0 0-.655.4-1.14.955.098-.795.298-2.499.298-3.219z"/>
	  <path fill="#2e2e2e" d="M68.114 82.29c0 5.996 5.58 10.465 11.261 10.465v-6.664c-7.953 0-11.261-3.8-11.261-3.8zm22.522 0s-3.308 3.801-11.26 3.801v6.664c5.681 0 11.26-4.47 11.26-10.465z"/>
	  <path fill="#1a1a1a" d="m66.516 81.948-2.36 1.596L73.4 96.81 69.31 86.48zm25.719 0-2.796 4.532-4.089 10.33 9.244-13.266z"/>
	  <path fill="#2e2e2e" d="M27.457 72.272c-5.26-.078-13.676 3.794-13.676 10.119 0 9.565 12.566 8.603 12.566 4.042 0-6.492 5.24-8.01 5.24-11.464 0-1.81-1.739-2.661-4.13-2.697zm103.836 0c-2.391.036-4.13.888-4.13 2.697 0 3.455 5.24 4.972 5.24 11.464 0 4.561 12.566 5.523 12.566-4.042 0-6.325-8.416-10.197-13.676-10.119z"/>
	  <path fill="#060606" d="M42.823 67.07c-3.864 0-6.423 3.846-6.423 7.321 0 0 6.093-2.187 16.123-2.187 3.748 0 11.196 6.679 11.196 6.679s1.005 2.505.437 4.66l2.36-1.595 2.795 4.532s-2.56-19.41-26.488-19.41zm73.104 0c-23.929 0-26.488 19.41-26.488 19.41l2.796-4.532 2.36 1.596c-.569-2.156.436-4.661.436-4.661s7.448-6.679 11.196-6.679c10.03 0 16.124 2.187 16.124 2.187 0-3.475-2.56-7.322-6.424-7.322zM10.094 76.207v15.534c0 7.69 16.153 31.24 16.153 31.24l-7.282-9.462S8.069 102.156 8.069 92.267c0-7.51 2.025-9.941 2.025-16.06z"/>
	  <path fill="#212121" d="M24.089 114.05s24.589 23.243 55.286 23.243c30.697 0 55.287-23.242 55.287-23.242s-24.428 21.49-55.287 21.49c-30.622 0-55.286-21.49-55.286-21.49z"/>
	  <path d="M52.523 69.61a9.25 8.783 0 0 0-9.25 8.782 9.25 8.783 0 0 0 9.25 8.783 9.25 8.783 0 0 0 9.25-8.783 9.25 8.783 0 0 0-9.25-8.783zm53.704 0a9.25 8.783 0 0 0-9.25 8.782 9.25 8.783 0 0 0 9.25 8.783 9.25 8.783 0 0 0 9.25-8.783 9.25 8.783 0 0 0-9.25-8.783z"/>
	  <path fill="#232323" d="M46.548 78.392a9.25 8.783 0 0 0-3.253.584 9.25 8.783 0 0 0 9.228 8.199 9.25 8.783 0 0 0 3.232-.578 9.25 8.783 0 0 0-9.207-8.205zm65.654 0a9.25 8.783 0 0 0-9.207 8.205 9.25 8.783 0 0 0 3.232.578 9.25 8.783 0 0 0 9.228-8.199 9.25 8.783 0 0 0-3.253-.584z"/>
	  <path fill="#e2e2e2" d="M54.596 78.971a1.36 1.16 0 0 0-1.361 1.16 1.36 1.16 0 0 0 1.36 1.16 1.36 1.16 0 0 0 1.361-1.16 1.36 1.16 0 0 0-1.36-1.16zm49.559 0a1.36 1.16 0 0 0-1.361 1.16 1.36 1.16 0 0 0 1.36 1.16 1.36 1.16 0 0 0 1.362-1.16 1.36 1.16 0 0 0-1.361-1.16zm-51.799 5.304a.606.597 0 0 0-.606.597.606.597 0 0 0 .606.597.606.597 0 0 0 .606-.597.606.597 0 0 0-.606-.597zm49.73 0a.606.597 0 0 0-.606.597.606.597 0 0 0 .606.597.606.597 0 0 0 .606-.597.606.597 0 0 0-.606-.597zM79.375 98.827a.602.602 0 0 0-.606.597c0 .33.271.597.606.597a.602.602 0 0 0 .606-.597.602.602 0 0 0-.606-.597z"/>
	  <path fill="#060606" d="M18.964 113.519 0 140.17l24.47 18.58-20.288-19.088 16.34-24.12zm120.822 0-1.558 2.023 16.34 24.12-20.288 19.088 24.47-18.58z"/>
	  <path fill="gray" d="m12.707 142.632 6.741 2.05-2.804 3.481 4.19 2.343-3.247-2.782 2.597-3.274-6.13-2.097 10.035-7.138-11.382 7.417zM146.043 142.632l-6.741 2.05 2.804 3.481-4.19 2.343 3.247-2.782-2.597-3.274 6.13-2.097-10.035-7.138 11.382 7.417z"/>
	</symbol>
	
	<symbol id="oldlogo" viewBox="0 0 100 100">
		<circle cx="50" cy="50" r="40" fill="#fff" opacity=".75"/>
		<path d="M52.738 79.92c-.795-.256-4.106-1.151-7.357-1.989-5.14-1.323-6.13-2.256-7.588-7.138-.921-3.089-1.675-7.092-1.675-8.897 0-3.018-.505-2.814-6.296 2.545-9.735 9.008-21.85 9.698-27.522 1.567-2.528-3.623-3.196-15.73-.868-15.73.794 0 1.445.95 1.445 2.109 0 4.162 3.446 9.584 6.596 10.378 7.583 1.91 18.544-8.662 20.28-19.562 2.232-14.012 12.873-18.968 28.721-13.376 7.227 2.55 9.34 2.752 14.032 1.34 4.97-1.494 5.524-2.148 5.524-6.51 0-5.6 1.338-6.074 5.163-1.83 1.881 2.086 3.818 1.93 6.366 2.278 6.816.933 7.653-3.189 10.314-1.615.51.302-.625 7.518-1.487 8.384-.863.865-1.568 3.397-1.568 5.625 0 2.672-1.476 5.372-4.336 7.93-6.33 5.662-2.017 5.664-10.116 12.104-4.702 3.739-5.781 5.513-5.781 9.502 0 3.42.875 5.376 2.89 6.459 4.048 2.175 3.686 5.804-.58 5.804-2.445 0-4.367-1.526-6.505-5.163-1.717-2.922-3.716-4.74-4.604-4.19-1.13.701-1.13 1.417.001 2.552 2.71 2.721 1.72 5.35-2.014 5.35-3.377 0-5.803-3.914-5.004-8.074.143-.747.183-2.215.089-3.263-.255-2.84-8.954-1.527-10.865 1.64-1.319 2.186-2.873 4.07 2.715 6.124 3.305 1.215 3.786 3.97 2.89 4.8-.778.721-2.065 1.102-2.86.846z"/>
	</symbol>
	
	<view id="logo-h-view" viewBox="0 0 1157.5774 175.6643"/>
	<use xlink:href="#logo-h" x="0" y="0" width="1157.5774" height="175.6643"/>
	
	<view id="logo-m-view" viewBox="0 175.664 158.75 175.664"/>
	<use xlink:href="#logo-m" x="0" y="175.6643" width="158.75" height="175.664"/>
	
	<view id="oldlogo-view" viewBox="0 351.328 100 100"/>
	<use xlink:href="#oldlogo" x="0" y="351.331" width="100" height="100"/>
</svg>
