<svg xmlns="http://www.w3.org/2000/svg">
	<symbol id="logo-h" viewBox="0 0 739.016 175.664">
		<path fill="#3d3d3d" d="M285.548 8.471c-11.856-.553-22.548 4.791-27.16 13.995-2.73 5.449-3.642 10.543-3.225 17.998.75 13.355 6.79 22.2 17.569 25.721 2.074.679 5.844.927 11.805.778 8.153-.201 9.098-.381 13.684-2.585 2.71-1.303 4.927-2.736 4.927-3.185 0-.116-3.741-11.236-5.78-10.34-15.673 6.895-25.402 2.483-26.197-11.88-.33-5.96.598-9.486 3.36-12.768 4.41-5.242 11.795-5.598 22.088-1.065 1.993.878 5.8-10.807 5.8-11.027-.003-1.475-5.614-3.883-11.734-5.037a36.992 36.992 0 0 0-5.137-.604zm-62.002.727c-7.167-.023-8.02.13-12.015 2.172-6.113 3.127-8.6 6.857-8.973 13.458-.155 2.756.104 6.182.576 7.615 1.417 4.293 6.457 8.066 14.232 10.656 3.736 1.245 7.324 2.85 7.972 3.567 1.625 1.795 1.475 4.175-.38 6.029-1.378 1.38-2.109 1.509-6.385 1.136-2.656-.232-6.768-1.098-9.138-1.923-2.371-.825-4.557-1.5-4.857-1.5-.738 0-3.3 9.303-4.048 11.252-.48 1.252 2.912 2.884 9.201 4.427 2.208.541 6.876 1.01 10.374 1.044 10.308.093 16.615-2.875 19.862-9.369 3.349-6.696 2.833-14.871-1.23-19.498-2.568-2.925-6.085-4.863-13.242-7.297-7.552-2.569-9.239-4.601-6.276-7.563 1.846-1.847 5.824-1.858 12.772-.035 2.81.737 5.143 1.292 5.187 1.234.36-.475 3.206-10.788 3.206-11.616 0-1.901-8.257-3.76-16.838-3.788zm299.277.15v57.115h15.326l.081-20.293h1.496l12.658 20.293h16.584l-13.192-23.484 2.543-2.232c7.893-6.93 8.103-21.782.384-27.092-4.641-3.193-6.522-4.306-21.463-4.306zm170.048 0v57.115h15.326l.081-20.293h1.496l12.657 20.293h16.585l-13.192-23.484 2.543-2.232c7.892-6.93 8.103-21.782.384-27.092-4.641-3.193-6.522-4.306-21.463-4.306zm-67.809.157-44.218.035-.334 13.52h23.323l-24.084 32.774v10.632h45.248V52.964h-24.913l24.978-33.272zm-308.413.035-.381 56.926h15.343V45.3h16.786v21.165h15.326V9.54h-14.961l-.405 21.895h-16.746V9.54zm60.585 0 13.78 56.926H407.5l6.476-25.786 6.949 25.786h16.764L450.84 9.54h-14.68l-7.557 36.728L419.68 9.54h-15.134l3.351 12.042-6.528 24.92-8.745-36.962zm96.446 0-18.156 56.926h15.558l3.884-11.723 16.023.41 4.115 11.313h16.138L492.815 9.54zm165.914 0v56.926h38.68V53.329H654.92v-8.758h18.246V31.435H654.92v-8.028h21.895V9.54zM538.15 21.958h3.317c2.592 0 3.729.412 5.197 1.88 1.583 1.583 1.818 2.341 1.489 4.8-.216 1.606-.963 3.552-1.661 4.323-.92 1.017-2.245 1.404-4.807 1.404h-3.535zm170.048 0h3.317c2.592 0 3.729.412 5.197 1.88 1.583 1.583 1.818 2.341 1.488 4.8-.215 1.606-.962 3.552-1.66 4.323-.92 1.017-2.245 1.404-4.807 1.404h-3.535zM483.35 23.407l4.926 18.975h-10.562zm-54.414 86.711v57.114h15.326l.08-20.292h1.496l12.658 20.292h16.585l-13.193-23.484 2.543-2.232c7.893-6.93 8.103-21.781.384-27.092-4.64-3.192-6.521-4.306-21.462-4.306zm-211.68.137-14.93.416-.382 56.561h15.312l.396-27.744 14.597 27.706 17.188.035-16.093-29.62 15.377-27.306h-17.322l-13.747 27.011zm58.99.046-18.154 56.926h15.557l3.885-11.722 16.023.41 4.114 11.312h16.139l-18.427-56.926Zm38.473 0 .116 14.075h16.362l-.058 42.851h14.597v-42.85h16.056V110.3zm60.94 0v56.926h38.68v-13.136h-23.354v-8.758h18.245v-13.137h-18.245v-8.028h21.894V110.3zm68.603 12.419h3.317c2.591 0 3.728.411 5.197 1.88 1.583 1.583 1.818 2.34 1.488 4.8-.216 1.606-.962 3.551-1.66 4.323-.92 1.016-2.246 1.404-4.807 1.404h-3.535zm-158.345 1.448 4.926 18.975h-10.564z"/>
		<path fill="#353535" fill-rule="evenodd" d="M10.553 0S6.576.964 6.576 7.98c0 19.073 3.518 59.149 3.518 68.227 0 6.119-2.025 7.377-2.025 16.06 0 9.931 10.895 21.252 10.895 21.252L0 140.17l24.47 18.58s24.956 16.914 54.905 16.914 54.905-16.914 54.905-16.914l24.47-18.58-18.964-26.651s10.895-11.32 10.895-21.252c0-8.683-2.025-9.941-2.025-16.06 0-9.078 3.518-49.154 3.518-68.228 0-7.015-3.977-7.979-3.977-7.979-15.65.13-37.011 22.844-37.011 22.844S95.525 18.01 79.375 18.01s-31.811 4.834-31.811 4.834S26.204.131 10.553 0z"/>
		<path fill="#404040" fill-rule="evenodd" d="M27.727 91.568s2.711 3.014 6.987 6.427c-4.234-3.438-6.987-6.427-6.987-6.427zm103.296 0s-2.753 2.989-6.987 6.427c4.276-3.413 6.987-6.427 6.987-6.427zM34.829 98.09c5.758 4.656 14.215 10.096 22.346 10.096 15.413 0 19.563-4.83 19.563-4.83l-.453-.009s-6.367 4.255-19.278 4.255c-8.372 0-16.59-5.073-22.178-9.512zm89.092 0c-5.588 4.44-13.806 9.512-22.178 9.512-12.91 0-19.278-4.255-19.278-4.255l-.453.008s4.15 4.831 19.563 4.831c8.131 0 16.589-5.44 22.346-10.095z"/>
		<path fill="#282828" fill-rule="evenodd" d="M16.144 89.964c-1.43-.007-2.423.654-2.423 2.234 0 28.968 49.067 45.095 65.654 45.095v-8.24c-31.574 0-53.088-16.832-53.088-30.136 0-4.555-6.492-8.936-10.143-8.953zm126.462 0c-3.651.017-10.143 4.398-10.143 8.953 0 13.304-21.513 30.136-53.088 30.136v8.24c16.587 0 65.654-16.127 65.654-45.095 0-1.58-.994-2.241-2.423-2.234z"/>
		<path fill="#222" fill-rule="evenodd" d="M33.043 82.191s17.07 16.135 38.38 16.135v-1.217c-21.42.488-38.38-14.918-38.38-14.918zm92.664 0S108.748 97.597 87.328 97.11v1.217c21.31 0 38.379-16.135 38.379-16.135z"/>
		<path fill="#454545" fill-rule="evenodd" d="M48.292 94.57s12.586 9.891 28.3 9.891v-1.097c-15.795.3-28.3-8.794-28.3-8.794zm62.167 0s-12.506 9.094-28.3 8.794v1.097c15.713 0 28.3-9.891 28.3-9.891z"/>
		<path fill="#404040" fill-rule="evenodd" d="M32.6 96.148s19.565 9.014 43.992 9.014v-1.096c-24.553.299-43.993-7.918-43.993-7.918zm93.551 0s-19.44 8.217-43.993 7.918v1.096c24.427 0 43.993-9.014 43.993-9.014z"/>
		<path fill="#4d4d4d" fill-rule="evenodd" d="M18.882 93.321s3.223 3.04 8.31 6.47c-5.035-3.456-8.31-6.47-8.31-6.47zm120.987 0s-3.248 2.987-8.243 6.423c5.045-3.41 8.243-6.423 8.243-6.423zm-8.243 6.423c-6.6 4.463-16.364 9.61-26.322 9.61-15.24 0-22.757-6.008-22.757-6.008l-.535.008s4.9 6.584 23.094 6.584c9.668 0 19.72-5.516 26.52-10.193zm-104.361.098c6.797 4.656 16.78 10.096 26.38 10.096 18.194 0 23.093-6.584 23.093-6.584l-.535-.008s-7.517 6.008-22.757 6.008c-9.883 0-19.584-5.073-26.181-9.512z"/>
		<path fill="#2e2e2e" fill-rule="evenodd" d="M79.375 30.214c-23.445 0-39.687 4.134-39.687 7.615-.28 1.948 4.373 6.244 9.405 6.244 4.79 0 16.718-2.437 30.282-2.437zm0 0v11.422c13.564 0 25.493 2.437 30.282 2.437 5.032 0 9.685-4.296 9.405-6.244 0-3.481-16.242-7.615-39.687-7.615z"/>
		<path fill="#282828" fill-rule="evenodd" d="m8.565 4.477 2.037 68.131s11.537-37.52 19.068-37.52l-5.353-8.681 9.33-.152S19.666 5.93 8.565 4.477zm141.62 0c-11.1 1.454-25.081 21.778-25.081 21.778l9.329.152-5.353 8.68c7.53 0 19.068 37.521 19.068 37.521z"/>
		<path fill="#242424" fill-rule="evenodd" d="M42.823 67.07c-3.864 0-6.424 3.846-6.424 7.321 0 18.018 39.152 16.097 39.152 31.732 0 6.492-12.846 6.025-12.846 6.025s5.715 6.606 16.67 6.534c10.955-.073 16.67-6.534 16.67-6.534s-12.846.467-12.846-6.025c0-15.635 39.152-13.714 39.152-31.732 0-3.475-2.56-7.322-6.424-7.322-28.287 0-20.564 25.686-36.551 25.686v.004l-.001-.004c-15.987 0-8.265-25.686-36.552-25.686z"/>
		<path fill="#999" d="M47.594 69.077a12.95 8.497 27.78 0 0-7.484 6.38 12.95 8.497 27.78 0 0 12.123 12.327 12.95 8.497 27.78 0 0 12.123-5.828A12.95 8.497 27.78 0 0 52.233 69.63a12.95 8.497 27.78 0 0-4.64-.553zm63.563 0a8.497 12.95 62.22 0 0-4.64.553 8.497 12.95 62.22 0 0-12.123 12.326 8.497 12.95 62.22 0 0 12.123 5.828 8.497 12.95 62.22 0 0 12.123-12.326 8.497 12.95 62.22 0 0-7.483-6.38z"/>
		<path fill="#060606" fill-rule="evenodd" d="M79.375 18.01c-16.15 0-31.81 4.834-31.81 4.834s-9.559 3.41-13.918 3.41l-9.33.153 5.353 8.68c-7.53 0-19.068 37.521-19.068 37.521s11.382-35.994 25.249-35.994l-6.18-6.91c15.656 0 33.742-7.874 49.704-7.874 15.962 0 34.048 7.874 49.705 7.874l-6.18 6.91c13.866 0 25.248 35.994 25.248 35.994s-11.537-37.52-19.068-37.52l5.353-8.681-9.33-.152c-4.359 0-13.917-3.41-13.917-3.41S95.525 18.01 79.375 18.01z"/>
		<path fill-rule="evenodd" d="m79.375 98.005-4.94.054-.545 2.387 1.308 2.657 2.505 1.085.254 6.084s-.237 3.167-4.854 3.167c-9.22 0-13.845-3.044-13.845-3.044s6.868 4.596 15.505 4.596c4.51 0 4.612-4.719 4.612-4.719zm0 0v12.267s.103 4.72 4.612 4.72c8.637 0 15.504-4.597 15.504-4.597s-4.624 3.044-13.844 3.044c-4.617 0-4.854-3.167-4.854-3.167l.254-6.084 2.505-1.085 1.308-2.657-.545-2.387z"/>
		<path fill="#2e2e2e" fill-rule="evenodd" d="M24.089 114.05s24.589 23.243 55.286 23.243c30.697 0 55.287-23.242 55.287-23.242l7.741 10.744s-28.447 26.62-63.028 26.62c-34.58 0-62.939-26.62-62.939-26.62z"/>
		<path fill="#2f2f2f" fill-rule="evenodd" d="m65.537 42.364-2.955.306.764 6.9 1.01 4.087v2.724l2.568 8.172 3.26-.315-.736-4.551 1.474-4.459zm27.676 0-5.384 12.864 1.473 4.459-.737 4.551 3.262.315 2.567-8.172v-2.724l1.01-4.086.764-6.901z"/>
		<path fill="#060606" fill-rule="evenodd" d="M10.553 0S6.576.964 6.576 7.98c0 19.073 3.518 59.148 3.518 68.227l.508-3.599L8.565 4.477c0-1.251 4.139-1.64 4.139-1.64 9.791 0 34.86 20.007 34.86 20.007S26.204.131 10.553 0zm137.644 0c-15.65.13-37.01 22.844-37.01 22.844s25.068-20.006 34.86-20.006c0 0 4.138.388 4.138 1.639l-2.037 68.131.508 3.599c0-9.079 3.518-49.154 3.518-68.228 0-7.015-3.977-7.979-3.977-7.979z"/>
		<path fill="#2f2f2f" fill-rule="evenodd" d="m55.221 46.473-1.835.71-.032 3.94 1.299 2.335-1.299.768v.895l1.88 2.472-3.001 1.21 1.121 3.472 1.51 1.42 3.698-.421 2.905-.79-.687-3.155-1.637-1.894 2.06-.631.57-1.396-2.248-3.047v-1.725l-1.638-2.437zm48.308 0-2.666 1.726-1.638 2.437v1.725l-2.249 3.047.571 1.396 2.06.631-1.637 1.894-.687 3.156 2.905.789 3.698.42 1.51-1.42 1.121-3.471-3-1.21 1.879-2.472v-.895l-1.298-.768 1.298-2.335-.032-3.94z"/>
		<path fill="#060606" fill-rule="evenodd" d="M148.656 76.207v15.534c0 7.69-16.153 31.24-16.153 31.24l7.283-9.462s10.895-11.363 10.895-21.252c0-7.51-2.025-9.941-2.025-16.06z"/>
		<path fill="#4d4d4d" fill-rule="evenodd" d="M39.676 49.135s25.646 4.469 25.646 28.381l.36-.238c0-23.82-26.006-28.143-26.006-28.143zm79.399 0s-26.007 4.323-26.007 28.143l.36.238c0-23.912 25.647-28.381 25.647-28.381z"/>
		<path fill="#404040" fill-rule="evenodd" d="M39.07 54.81c-.711-.01-1.117.012-1.117.012s25.646-1.218 25.646 22.694l.36-.238c0-20.842-19.911-22.404-24.89-22.468zm80.61 0c-4.977.064-24.89 1.626-24.89 22.468l.361.238c0-23.912 25.647-22.694 25.647-22.694s-.406-.021-1.118-.012z"/>
		<path fill="#404040" fill-rule="evenodd" d="M48.292 46.057s18.753 7 18.753 34.965l.36-.238c0-28.063-19.113-34.727-19.113-34.727zm62.167 0s-19.114 6.664-19.114 34.727l.36.238c0-27.965 18.754-34.965 18.754-34.965z"/>
		<path fill="gray" fill-rule="evenodd" d="m35.288 82.746-.594.322.741 1.381.556.77.23.57 1.226 1.491.658-.35-.537-.89-.067-1.064zm88.174 0-2.213 2.23-.066 1.063-.538.891.658.35 1.227-1.49.229-.572.556-.769.741-1.381zm-84.238 5.735-1.51.243.23.572 1.227 1.49.658-.35-.538-.89zm80.302 0-.066 1.064-.538.891.657.35 1.228-1.49.229-.572zm-105.06 2.02-1.227 1.224-.23.522 1.577-.48.537-.773zm129.819 0-.658.493.537.774 1.577.479-.23-.522zM12.767 94.82l.23.662 1.226 1.975.658-.09-.538-1.103zm133.216 0-1.576 1.444-.538 1.103.658.09 1.227-1.975zM59.898 34.35c0 .72.2 2.424.299 3.219-.485-.556-1.14-.955-1.14-.955 0 .953-.143 2.134-.143 2.134l.196-.11s.216-.645.216-1.362c0 0 .808.547.808 1.365l.574.02c0-.265-.108-.527-.267-.771l.006-.003s-.208-1.82-.208-2.538c0 0 2.136 2.576 2.136 3.993l.809.02c0-1.04-3.285-5.011-3.285-5.011zm38.954 0s-3.285 3.97-3.285 5.012l.809-.02c0-1.417 2.136-3.994 2.136-3.994 0 .718-.209 2.538-.209 2.538l.006.003c-.16.244-.266.507-.266.771l.573-.02c0-.817.809-1.365.809-1.365 0 .718.215 1.363.215 1.363l.197.11s-.143-1.181-.143-2.134c0 0-.655.4-1.14.955.098-.795.298-2.499.298-3.219z"/>
		<path fill="#2e2e2e" fill-rule="evenodd" d="M68.114 82.29c0 5.996 5.58 10.465 11.261 10.465v-6.664c-7.953 0-11.261-3.8-11.261-3.8zm22.522 0s-3.308 3.801-11.26 3.801v6.664c5.681 0 11.26-4.47 11.26-10.465z"/>
		<path fill="#1a1a1a" fill-rule="evenodd" d="m66.516 81.948-2.36 1.596L73.4 96.81l-4.09-10.33zm25.719 0-2.796 4.532-4.089 10.33 9.244-13.266z"/>
		<path fill="#2e2e2e" fill-rule="evenodd" d="M27.457 72.272c-5.26-.078-13.676 3.794-13.676 10.119 0 9.565 12.566 8.603 12.566 4.042 0-6.492 5.24-8.01 5.24-11.464 0-1.81-1.739-2.661-4.13-2.697zm103.836 0c-2.391.036-4.13.888-4.13 2.697 0 3.455 5.24 4.972 5.24 11.464 0 4.561 12.566 5.523 12.566-4.042 0-6.325-8.416-10.197-13.676-10.119z"/>
		<path fill="#060606" fill-rule="evenodd" d="M42.823 67.07c-3.864 0-6.423 3.846-6.423 7.321 0 0 6.093-2.187 16.123-2.187 3.748 0 11.196 6.679 11.196 6.679s1.005 2.505.437 4.66l2.36-1.595 2.795 4.532s-2.56-19.41-26.488-19.41zm73.104 0c-23.929 0-26.488 19.41-26.488 19.41l2.796-4.532 2.36 1.596c-.569-2.156.436-4.661.436-4.661s7.448-6.679 11.196-6.679c10.03 0 16.124 2.187 16.124 2.187 0-3.475-2.56-7.322-6.424-7.322zM10.094 76.207v15.534c0 7.69 16.153 31.24 16.153 31.24l-7.282-9.462S8.069 102.156 8.069 92.267c0-7.51 2.025-9.941 2.025-16.06z"/>
		<path fill="#212121" fill-rule="evenodd" d="M24.089 114.05s24.589 23.243 55.286 23.243c30.697 0 55.287-23.242 55.287-23.242s-24.428 21.49-55.287 21.49c-30.622 0-55.286-21.49-55.286-21.49z"/>
		<path d="M52.523 69.61a9.25 8.783 0 0 0-9.25 8.782 9.25 8.783 0 0 0 9.25 8.783 9.25 8.783 0 0 0 9.25-8.783 9.25 8.783 0 0 0-9.25-8.783zm53.704 0a9.25 8.783 0 0 0-9.25 8.782 9.25 8.783 0 0 0 9.25 8.783 9.25 8.783 0 0 0 9.25-8.783 9.25 8.783 0 0 0-9.25-8.783z"/>
		<path fill="#232323" d="M46.548 78.392a9.25 8.783 0 0 0-3.253.584 9.25 8.783 0 0 0 9.228 8.199 9.25 8.783 0 0 0 3.232-.578 9.25 8.783 0 0 0-9.207-8.205zm65.654 0a9.25 8.783 0 0 0-9.207 8.205 9.25 8.783 0 0 0 3.232.578 9.25 8.783 0 0 0 9.228-8.199 9.25 8.783 0 0 0-3.253-.584z"/>
		<path fill="#e2e2e2" d="M54.596 78.971a1.36 1.16 0 0 0-1.361 1.16 1.36 1.16 0 0 0 1.36 1.16 1.36 1.16 0 0 0 1.361-1.16 1.36 1.16 0 0 0-1.36-1.16zm49.559 0a1.36 1.16 0 0 0-1.361 1.16 1.36 1.16 0 0 0 1.36 1.16 1.36 1.16 0 0 0 1.362-1.16 1.36 1.16 0 0 0-1.361-1.16zm-51.799 5.304a.606.597 0 0 0-.606.597.606.597 0 0 0 .606.597.606.597 0 0 0 .606-.597.606.597 0 0 0-.606-.597zm49.73 0a.606.597 0 0 0-.606.597.606.597 0 0 0 .606.597.606.597 0 0 0 .606-.597.606.597 0 0 0-.606-.597zM79.375 98.827a.602.602 0 0 0-.606.597c0 .33.271.597.606.597a.602.602 0 0 0 .606-.597.602.602 0 0 0-.606-.597z"/>
		<path fill="#060606" fill-rule="evenodd" d="M18.964 113.519 0 140.17l24.47 18.58-20.288-19.088 16.34-24.12zm120.822 0-1.558 2.023 16.34 24.12-20.288 19.088 24.47-18.58z"/>
		<path fill="gray" fill-rule="evenodd" d="m12.707 142.632 6.741 2.05-2.804 3.481 4.19 2.343-3.247-2.782 2.597-3.274-6.13-2.097 10.035-7.138-11.382 7.417zm133.336 0-6.741 2.05 2.804 3.481-4.19 2.343 3.247-2.782-2.597-3.274 6.13-2.097-10.035-7.138 11.382 7.417z"/>
	</symbol>

	<symbol id="logo-m" viewBox="0 0 158.75 175.664">
	  <path fill="#353535" fill-rule="evenodd" d="M10.553 0S6.576.964 6.576 7.98c0 19.073 3.518 59.149 3.518 68.227 0 6.119-2.025 7.377-2.025 16.06 0 9.931 10.895 21.252 10.895 21.252L0 140.17l24.47 18.58s24.956 16.914 54.905 16.914 54.905-16.914 54.905-16.914l24.47-18.58-18.964-26.651s10.895-11.32 10.895-21.252c0-8.683-2.025-9.941-2.025-16.06 0-9.078 3.518-49.154 3.518-68.228 0-7.015-3.977-7.979-3.977-7.979-15.65.13-37.011 22.844-37.011 22.844S95.525 18.01 79.375 18.01s-31.811 4.834-31.811 4.834S26.204.131 10.553 0z"/>
	  <path fill="#404040" fill-rule="evenodd" d="M27.727 91.568s2.711 3.014 6.987 6.427c-4.234-3.438-6.987-6.427-6.987-6.427zm103.296 0s-2.753 2.989-6.987 6.427c4.276-3.413 6.987-6.427 6.987-6.427zM34.829 98.09c5.758 4.656 14.215 10.096 22.346 10.096 15.413 0 19.563-4.83 19.563-4.83l-.453-.009s-6.367 4.255-19.278 4.255c-8.372 0-16.59-5.073-22.178-9.512zm89.092 0c-5.588 4.44-13.806 9.512-22.178 9.512-12.91 0-19.278-4.255-19.278-4.255l-.453.008s4.15 4.831 19.563 4.831c8.131 0 16.589-5.44 22.346-10.095z"/>
	  <path fill="#282828" fill-rule="evenodd" d="M16.144 89.964c-1.43-.007-2.423.654-2.423 2.234 0 28.968 49.067 45.095 65.654 45.095v-8.24c-31.574 0-53.088-16.832-53.088-30.136 0-4.555-6.492-8.936-10.143-8.953zm126.462 0c-3.651.017-10.143 4.398-10.143 8.953 0 13.304-21.513 30.136-53.088 30.136v8.24c16.587 0 65.654-16.127 65.654-45.095 0-1.58-.994-2.241-2.423-2.234z"/>
	  <path fill="#222" fill-rule="evenodd" d="M33.043 82.191s17.07 16.135 38.38 16.135v-1.217c-21.42.488-38.38-14.918-38.38-14.918zm92.664 0S108.748 97.597 87.328 97.11v1.217c21.31 0 38.379-16.135 38.379-16.135z"/>
	  <path fill="#454545" fill-rule="evenodd" d="M48.292 94.57s12.586 9.891 28.3 9.891v-1.097c-15.795.3-28.3-8.794-28.3-8.794zm62.167 0s-12.506 9.094-28.3 8.794v1.097c15.713 0 28.3-9.891 28.3-9.891z"/>
	  <path fill="#404040" fill-rule="evenodd" d="M32.6 96.148s19.565 9.014 43.992 9.014v-1.096c-24.553.299-43.993-7.918-43.993-7.918zm93.551 0s-19.44 8.217-43.993 7.918v1.096c24.427 0 43.993-9.014 43.993-9.014z"/>
	  <path fill="#4d4d4d" fill-rule="evenodd" d="M18.882 93.321s3.223 3.04 8.31 6.47c-5.035-3.456-8.31-6.47-8.31-6.47zm120.987 0s-3.248 2.987-8.243 6.423c5.045-3.41 8.243-6.423 8.243-6.423zm-8.243 6.423c-6.6 4.463-16.364 9.61-26.322 9.61-15.24 0-22.757-6.008-22.757-6.008l-.535.008s4.9 6.584 23.094 6.584c9.668 0 19.72-5.516 26.52-10.193zm-104.361.098c6.797 4.656 16.78 10.096 26.38 10.096 18.194 0 23.093-6.584 23.093-6.584l-.535-.008s-7.517 6.008-22.757 6.008c-9.883 0-19.584-5.073-26.181-9.512z"/>
	  <path fill="#2e2e2e" fill-rule="evenodd" d="M79.375 30.214c-23.445 0-39.687 4.134-39.687 7.615-.28 1.948 4.373 6.244 9.405 6.244 4.79 0 16.718-2.437 30.282-2.437zm0 0v11.422c13.564 0 25.493 2.437 30.282 2.437 5.032 0 9.685-4.296 9.405-6.244 0-3.481-16.242-7.615-39.687-7.615z"/>
	  <path fill="#282828" fill-rule="evenodd" d="m8.565 4.477 2.037 68.131s11.537-37.52 19.068-37.52l-5.353-8.681 9.33-.152S19.666 5.93 8.565 4.477zm141.62 0c-11.1 1.454-25.081 21.778-25.081 21.778l9.329.152-5.353 8.68c7.53 0 19.068 37.521 19.068 37.521z"/>
	  <path fill="#242424" fill-rule="evenodd" d="M42.823 67.07c-3.864 0-6.424 3.846-6.424 7.321 0 18.018 39.152 16.097 39.152 31.732 0 6.492-12.846 6.025-12.846 6.025s5.715 6.606 16.67 6.534c10.955-.073 16.67-6.534 16.67-6.534s-12.846.467-12.846-6.025c0-15.635 39.152-13.714 39.152-31.732 0-3.475-2.56-7.322-6.424-7.322-28.287 0-20.564 25.686-36.551 25.686v.004l-.001-.004c-15.987 0-8.265-25.686-36.552-25.686z"/>
	  <path fill="#999" d="M47.594 69.077a12.95 8.497 27.78 0 0-7.484 6.38 12.95 8.497 27.78 0 0 12.123 12.327 12.95 8.497 27.78 0 0 12.123-5.828A12.95 8.497 27.78 0 0 52.233 69.63a12.95 8.497 27.78 0 0-4.64-.553zm63.563 0a8.497 12.95 62.22 0 0-4.64.553 8.497 12.95 62.22 0 0-12.123 12.326 8.497 12.95 62.22 0 0 12.123 5.828 8.497 12.95 62.22 0 0 12.123-12.326 8.497 12.95 62.22 0 0-7.483-6.38z"/>
	  <path fill="#060606" fill-rule="evenodd" d="M79.375 18.01c-16.15 0-31.81 4.834-31.81 4.834s-9.559 3.41-13.918 3.41l-9.33.153 5.353 8.68c-7.53 0-19.068 37.521-19.068 37.521s11.382-35.994 25.249-35.994l-6.18-6.91c15.656 0 33.742-7.874 49.704-7.874 15.962 0 34.048 7.874 49.705 7.874l-6.18 6.91c13.866 0 25.248 35.994 25.248 35.994s-11.537-37.52-19.068-37.52l5.353-8.681-9.33-.152c-4.359 0-13.917-3.41-13.917-3.41S95.525 18.01 79.375 18.01z"/>
	  <path fill-rule="evenodd" d="m79.375 98.005-4.94.054-.545 2.387 1.308 2.657 2.505 1.085.254 6.084s-.237 3.167-4.854 3.167c-9.22 0-13.845-3.044-13.845-3.044s6.868 4.596 15.505 4.596c4.51 0 4.612-4.719 4.612-4.719zm0 0v12.267s.103 4.72 4.612 4.72c8.637 0 15.504-4.597 15.504-4.597s-4.624 3.044-13.844 3.044c-4.617 0-4.854-3.167-4.854-3.167l.254-6.084 2.505-1.085 1.308-2.657-.545-2.387z"/>
	  <path fill="#2e2e2e" fill-rule="evenodd" d="M24.089 114.05s24.589 23.243 55.286 23.243c30.697 0 55.287-23.242 55.287-23.242l7.741 10.744s-28.447 26.62-63.028 26.62c-34.58 0-62.939-26.62-62.939-26.62z"/>
	  <path fill="#2f2f2f" fill-rule="evenodd" d="m65.537 42.364-2.955.306.764 6.9 1.01 4.087v2.724l2.568 8.172 3.26-.315-.736-4.551 1.474-4.459zm27.676 0-5.384 12.864 1.473 4.459-.737 4.551 3.262.315 2.567-8.172v-2.724l1.01-4.086.764-6.901z"/>
	  <path fill="#060606" fill-rule="evenodd" d="M10.553 0S6.576.964 6.576 7.98c0 19.073 3.518 59.148 3.518 68.227l.508-3.599L8.565 4.477c0-1.251 4.139-1.64 4.139-1.64 9.791 0 34.86 20.007 34.86 20.007S26.204.131 10.553 0zm137.644 0c-15.65.13-37.01 22.844-37.01 22.844s25.068-20.006 34.86-20.006c0 0 4.138.388 4.138 1.639l-2.037 68.131.508 3.599c0-9.079 3.518-49.154 3.518-68.228 0-7.015-3.977-7.979-3.977-7.979z"/>
	  <path fill="#2f2f2f" fill-rule="evenodd" d="m55.221 46.473-1.835.71-.032 3.94 1.299 2.335-1.299.768v.895l1.88 2.472-3.001 1.21 1.121 3.472 1.51 1.42 3.698-.421 2.905-.79-.687-3.155-1.637-1.894 2.06-.631.57-1.396-2.248-3.047v-1.725l-1.638-2.437zm48.308 0-2.666 1.726-1.638 2.437v1.725l-2.249 3.047.571 1.396 2.06.631-1.637 1.894-.687 3.156 2.905.789 3.698.42 1.51-1.42 1.121-3.471-3-1.21 1.879-2.472v-.895l-1.298-.768 1.298-2.335-.032-3.94z"/>
	  <path fill="#060606" fill-rule="evenodd" d="M148.656 76.207v15.534c0 7.69-16.153 31.24-16.153 31.24l7.283-9.462s10.895-11.363 10.895-21.252c0-7.51-2.025-9.941-2.025-16.06z"/>
	  <path fill="#4d4d4d" fill-rule="evenodd" d="M39.676 49.135s25.646 4.469 25.646 28.381l.36-.238c0-23.82-26.006-28.143-26.006-28.143zm79.399 0s-26.007 4.323-26.007 28.143l.36.238c0-23.912 25.647-28.381 25.647-28.381z"/>
	  <path fill="#404040" fill-rule="evenodd" d="M39.07 54.81c-.711-.01-1.117.012-1.117.012s25.646-1.218 25.646 22.694l.36-.238c0-20.842-19.911-22.404-24.89-22.468zm80.61 0c-4.977.064-24.89 1.626-24.89 22.468l.361.238c0-23.912 25.647-22.694 25.647-22.694s-.406-.021-1.118-.012z"/>
	  <path fill="#404040" fill-rule="evenodd" d="M48.292 46.057s18.753 7 18.753 34.965l.36-.238c0-28.063-19.113-34.727-19.113-34.727zm62.167 0s-19.114 6.664-19.114 34.727l.36.238c0-27.965 18.754-34.965 18.754-34.965z"/>
	  <path fill="gray" fill-rule="evenodd" d="m35.288 82.746-.594.322.741 1.381.556.77.23.57 1.226 1.491.658-.35-.537-.89-.067-1.064zm88.174 0-2.213 2.23-.066 1.063-.538.891.658.35 1.227-1.49.229-.572.556-.769.741-1.381zm-84.238 5.735-1.51.243.23.572 1.227 1.49.658-.35-.538-.89zm80.302 0-.066 1.064-.538.891.657.35 1.228-1.49.229-.572zm-105.06 2.02-1.227 1.224-.23.522 1.577-.48.537-.773zm129.819 0-.658.493.537.774 1.577.479-.23-.522zM12.767 94.82l.23.662 1.226 1.975.658-.09-.538-1.103zm133.216 0-1.576 1.444-.538 1.103.658.09 1.227-1.975zM59.898 34.35c0 .72.2 2.424.299 3.219-.485-.556-1.14-.955-1.14-.955 0 .953-.143 2.134-.143 2.134l.196-.11s.216-.645.216-1.362c0 0 .808.547.808 1.365l.574.02c0-.265-.108-.527-.267-.771l.006-.003s-.208-1.82-.208-2.538c0 0 2.136 2.576 2.136 3.993l.809.02c0-1.04-3.285-5.011-3.285-5.011zm38.954 0s-3.285 3.97-3.285 5.012l.809-.02c0-1.417 2.136-3.994 2.136-3.994 0 .718-.209 2.538-.209 2.538l.006.003c-.16.244-.266.507-.266.771l.573-.02c0-.817.809-1.365.809-1.365 0 .718.215 1.363.215 1.363l.197.11s-.143-1.181-.143-2.134c0 0-.655.4-1.14.955.098-.795.298-2.499.298-3.219z"/>
	  <path fill="#2e2e2e" fill-rule="evenodd" d="M68.114 82.29c0 5.996 5.58 10.465 11.261 10.465v-6.664c-7.953 0-11.261-3.8-11.261-3.8zm22.522 0s-3.308 3.801-11.26 3.801v6.664c5.681 0 11.26-4.47 11.26-10.465z"/>
	  <path fill="#1a1a1a" fill-rule="evenodd" d="m66.516 81.948-2.36 1.596L73.4 96.81 69.31 86.48zm25.719 0-2.796 4.532-4.089 10.33 9.244-13.266z"/>
	  <path fill="#2e2e2e" fill-rule="evenodd" d="M27.457 72.272c-5.26-.078-13.676 3.794-13.676 10.119 0 9.565 12.566 8.603 12.566 4.042 0-6.492 5.24-8.01 5.24-11.464 0-1.81-1.739-2.661-4.13-2.697zm103.836 0c-2.391.036-4.13.888-4.13 2.697 0 3.455 5.24 4.972 5.24 11.464 0 4.561 12.566 5.523 12.566-4.042 0-6.325-8.416-10.197-13.676-10.119z"/>
	  <path fill="#060606" fill-rule="evenodd" d="M42.823 67.07c-3.864 0-6.423 3.846-6.423 7.321 0 0 6.093-2.187 16.123-2.187 3.748 0 11.196 6.679 11.196 6.679s1.005 2.505.437 4.66l2.36-1.595 2.795 4.532s-2.56-19.41-26.488-19.41zm73.104 0c-23.929 0-26.488 19.41-26.488 19.41l2.796-4.532 2.36 1.596c-.569-2.156.436-4.661.436-4.661s7.448-6.679 11.196-6.679c10.03 0 16.124 2.187 16.124 2.187 0-3.475-2.56-7.322-6.424-7.322zM10.094 76.207v15.534c0 7.69 16.153 31.24 16.153 31.24l-7.282-9.462S8.069 102.156 8.069 92.267c0-7.51 2.025-9.941 2.025-16.06z"/>
	  <path fill="#212121" fill-rule="evenodd" d="M24.089 114.05s24.589 23.243 55.286 23.243c30.697 0 55.287-23.242 55.287-23.242s-24.428 21.49-55.287 21.49c-30.622 0-55.286-21.49-55.286-21.49z"/>
	  <path d="M52.523 69.61a9.25 8.783 0 0 0-9.25 8.782 9.25 8.783 0 0 0 9.25 8.783 9.25 8.783 0 0 0 9.25-8.783 9.25 8.783 0 0 0-9.25-8.783zm53.704 0a9.25 8.783 0 0 0-9.25 8.782 9.25 8.783 0 0 0 9.25 8.783 9.25 8.783 0 0 0 9.25-8.783 9.25 8.783 0 0 0-9.25-8.783z"/>
	  <path fill="#232323" d="M46.548 78.392a9.25 8.783 0 0 0-3.253.584 9.25 8.783 0 0 0 9.228 8.199 9.25 8.783 0 0 0 3.232-.578 9.25 8.783 0 0 0-9.207-8.205zm65.654 0a9.25 8.783 0 0 0-9.207 8.205 9.25 8.783 0 0 0 3.232.578 9.25 8.783 0 0 0 9.228-8.199 9.25 8.783 0 0 0-3.253-.584z"/>
	  <path fill="#e2e2e2" d="M54.596 78.971a1.36 1.16 0 0 0-1.361 1.16 1.36 1.16 0 0 0 1.36 1.16 1.36 1.16 0 0 0 1.361-1.16 1.36 1.16 0 0 0-1.36-1.16zm49.559 0a1.36 1.16 0 0 0-1.361 1.16 1.36 1.16 0 0 0 1.36 1.16 1.36 1.16 0 0 0 1.362-1.16 1.36 1.16 0 0 0-1.361-1.16zm-51.799 5.304a.606.597 0 0 0-.606.597.606.597 0 0 0 .606.597.606.597 0 0 0 .606-.597.606.597 0 0 0-.606-.597zm49.73 0a.606.597 0 0 0-.606.597.606.597 0 0 0 .606.597.606.597 0 0 0 .606-.597.606.597 0 0 0-.606-.597zM79.375 98.827a.602.602 0 0 0-.606.597c0 .33.271.597.606.597a.602.602 0 0 0 .606-.597.602.602 0 0 0-.606-.597z"/>
	  <path fill="#060606" fill-rule="evenodd" d="M18.964 113.519 0 140.17l24.47 18.58-20.288-19.088 16.34-24.12zm120.822 0-1.558 2.023 16.34 24.12-20.288 19.088 24.47-18.58z"/>
	  <path fill="gray" fill-rule="evenodd" d="m12.707 142.632 6.741 2.05-2.804 3.481 4.19 2.343-3.247-2.782 2.597-3.274-6.13-2.097 10.035-7.138-11.382 7.417zM146.043 142.632l-6.741 2.05 2.804 3.481-4.19 2.343 3.247-2.782-2.597-3.274 6.13-2.097-10.035-7.138 11.382 7.417z"/>
	</symbol>
	
	<view id="logo-h-view" viewBox="0 0 739.016 175.664"/>
	<use xlink:href="#logo-h" x="0" y="0" width="739.016" height="175.664"/>
	
	<view id="logo-m-view" viewBox="0 0 158.75 175.664">
	<use xlink:href="#logo-m" x="0" y="0" width="158.75" height="175.664"/>
</svg>
