<svg xmlns="http://www.w3.org/2000/svg" viewBox="0 0 512 512">
	<path fill="#353535" d="M55.408 0S43.816 2.81 43.816 23.259c0 55.591 10.254 172.399 10.254 198.858 0 17.835-5.902 21.502-5.902 46.81 0 28.945 31.755 61.942 31.755 61.942l-55.274 77.678 71.322 54.155S168.709 512 256 512s160.03-49.298 160.03-49.298l71.32-54.155-55.273-77.678s31.755-32.994 31.755-61.942c0-25.308-5.902-28.975-5.902-46.81 0-26.46 10.254-143.267 10.254-198.861C468.184 2.81 456.592 0 456.592 0c-45.614.379-107.874 66.582-107.874 66.582S303.072 52.492 256 52.492s-92.718 14.09-92.718 14.09S101.025.382 55.408 0z"/>
	<path fill="#404040" d="M105.464 266.89s7.902 8.784 20.365 18.732c-12.341-10.02-20.365-18.733-20.365-18.733zm301.072 0s-8.024 8.711-20.365 18.732c12.463-9.948 20.365-18.733 20.365-18.733zm-280.372 19.009c16.782 13.57 41.432 29.426 65.13 29.426 44.924 0 57.02-14.078 57.02-14.078l-1.32-.026s-18.558 12.402-56.189 12.402c-24.402 0-48.354-14.786-64.641-27.724zm259.672 0c-16.287 12.94-40.24 27.724-64.641 27.724-37.628 0-56.189-12.402-56.189-12.402l-1.32.023s12.096 14.08 57.02 14.08c23.698 0 48.35-15.855 65.13-29.423z"/>
	<path fill="#282828" d="M71.703 262.214c-4.168-.02-7.062 1.906-7.062 6.511 0 84.432 143.014 131.437 191.359 131.437v-24.017c-92.027 0-154.733-49.06-154.733-87.836 0-13.276-18.922-26.045-29.564-26.095zm368.594 0c-10.642.05-29.564 12.819-29.564 26.095 0 38.777-62.703 87.836-154.733 87.836v24.017c48.345 0 191.359-47.005 191.359-131.437 0-4.605-2.897-6.531-7.062-6.511z"/>
	<path fill="#222" d="M120.958 239.558s49.753 47.028 111.865 47.028v-3.547c-62.432 1.423-111.865-43.48-111.865-43.48zm270.084 0s-49.43 44.904-111.862 43.484v3.547c62.112 0 111.862-47.028 111.862-47.028z"/>
	<path fill="#454545" d="M165.404 275.639s36.684 28.829 82.485 28.829v-3.198c-46.037.875-82.485-25.631-82.485-25.631zm181.195 0s-36.45 26.506-82.485 25.631v3.198c45.798 0 82.485-28.83 82.485-28.83z"/>
	<path fill="#404040" d="M119.667 280.238s57.025 26.273 128.222 26.273v-3.194c-71.564.871-128.225-23.079-128.225-23.079Zm272.669 0s-56.661 23.95-128.225 23.079v3.194c71.197 0 128.225-26.273 128.225-26.273z"/>
	<path fill="#4d4d4d" d="M79.684 271.999s9.394 8.86 24.22 18.857C89.23 280.783 79.685 272 79.685 272Zm352.635 0s-9.467 8.706-24.025 18.72c14.704-9.939 24.025-18.72 24.025-18.72zm-24.025 18.72c-19.237 13.008-47.696 28.01-76.72 28.01-44.42 0-66.329-17.511-66.329-17.511l-1.559.023s14.282 19.19 67.311 19.19c28.179 0 57.477-16.077 77.297-29.709zm-304.177.286c19.811 13.57 48.908 29.426 76.889 29.426 53.03 0 67.308-19.19 67.308-19.19l-1.56-.023s-21.909 17.511-66.328 17.511c-28.806 0-57.08-14.786-76.309-27.724z"/>
	<path fill="#2e2e2e" d="M256 88.063c-68.334 0-115.674 12.05-115.674 22.195-.816 5.678 12.746 18.2 27.412 18.2 13.962 0 48.728-7.103 88.262-7.103zm0 0v33.292c39.534 0 74.303 7.103 88.262 7.103 14.666 0 28.228-12.522 27.412-18.2 0-10.145-47.34-22.195-115.674-22.195z"/>
	<path fill="#282828" d="m49.613 13.049 5.937 198.578S89.177 102.27 111.127 102.27L95.525 76.967l27.194-.443s-40.75-59.24-73.106-63.475zm412.774 0c-32.353 4.238-73.103 63.475-73.103 63.475l27.191.443-15.602 25.3c21.947 0 55.577 109.36 55.577 109.36z"/>
	<path fill="#242424" d="M149.464 195.486c-11.263 0-18.724 11.21-18.724 21.338 0 52.516 114.114 46.917 114.114 92.488 0 18.922-37.441 17.56-37.441 17.56S224.07 346.128 256 345.918c31.93-.213 48.587-19.044 48.587-19.044s-37.441 1.36-37.441-17.561c0-45.57 114.114-39.972 114.114-92.488 0-10.128-7.461-21.341-18.724-21.341-82.446 0-59.936 74.866-106.533 74.866v.012l-.003-.012c-46.597 0-24.09-74.866-106.537-74.866z"/>
	<path fill="#999" d="M163.37 201.336a37.745 24.766 27.78 0 0-21.814 18.595 37.745 24.766 27.78 0 0 35.334 35.93 37.745 24.766 27.78 0 0 35.335-16.988 37.745 24.766 27.78 0 0-35.335-35.926 37.745 24.766 27.78 0 0-13.524-1.611zm185.264 0a24.766 37.745 62.22 0 0-13.524 1.611 24.766 37.745 62.22 0 0-35.335 35.926 24.766 37.745 62.22 0 0 35.335 16.987 24.766 37.745 62.22 0 0 35.334-35.926 24.766 37.745 62.22 0 0-21.81-18.595z"/>
	<path fill="#060606" d="M256 52.493c-47.072 0-92.715 14.09-92.715 14.09s-27.861 9.938-40.566 9.938l-27.194.446 15.602 25.3c-21.947 0-55.577 109.36-55.577 109.36s33.175-104.91 73.593-104.91l-18.013-20.14c45.632 0 98.346-22.95 144.87-22.95s99.238 22.95 144.873 22.95l-18.013 20.14c40.415 0 73.59 104.91 73.59 104.91S422.823 102.27 400.873 102.27l15.602-25.302-27.194-.443c-12.705 0-40.563-9.939-40.563-9.939S303.072 52.493 256 52.493z"/>
	<path d="m256 285.65-14.398.158-1.589 6.957 3.812 7.745 7.302 3.162.74 17.733s-.69 9.23-14.148 9.23c-26.873 0-40.353-8.872-40.353-8.872s20.018 13.396 45.192 13.396c13.145 0 13.442-13.754 13.442-13.754zm0 0v35.755s.3 13.757 13.442 13.757c25.174 0 45.19-13.399 45.19-13.399s-13.478 8.873-40.351 8.873c-13.457 0-14.148-9.231-14.148-9.231l.74-17.733 7.302-3.162 3.812-7.745-1.589-6.957z"/>
	<path fill="#2e2e2e" d="M94.86 332.416s71.67 67.746 161.14 67.746c89.471 0 161.143-67.743 161.143-67.743l22.562 31.315S356.792 441.323 256 441.323c-100.789 0-183.445-77.589-183.445-77.589z"/>
	<path fill="#2f2f2f" d="m215.667 123.476-8.613.892 2.227 20.111 2.944 11.913v7.94l7.485 23.818 9.501-.918-2.145-13.265 4.296-12.996zm80.666 0-15.693 37.495 4.294 12.996-2.148 13.265 9.507.918 7.482-23.819v-7.94l2.944-11.909 2.227-20.114z"/>
	<path fill="#060606" d="M55.408 0S43.816 2.81 43.816 23.259c0 55.591 10.254 172.396 10.254 198.858l1.48-10.49L49.613 13.05c0-3.646 12.064-4.78 12.064-4.78 28.537 0 101.605 58.313 101.605 58.313S101.025.382 55.408 0zm401.184 0c-45.614.379-107.871 66.582-107.871 66.582s73.065-58.31 101.605-58.31c0 0 12.06 1.13 12.06 4.777l-5.936 198.578 1.48 10.49c0-26.462 10.254-143.267 10.254-198.861C468.184 2.81 456.592 0 456.592 0Z"/>
	<path fill="#2f2f2f" d="m185.6 135.453-5.349 2.07-.093 11.483 3.786 6.806-3.786 2.238v2.609l5.48 7.205-8.748 3.526 3.268 10.12 4.4 4.139 10.78-1.227 8.466-2.303-2.002-9.195-4.771-5.52 6.004-1.84 1.661-4.069-6.552-8.88v-5.029l-4.774-7.103zm140.8 0-7.77 5.03-4.774 7.103v5.028l-6.555 8.881 1.664 4.07 6.004 1.838-4.771 5.52-2.002 9.2 8.467 2.299 10.778 1.224 4.401-4.139 3.268-10.117-8.744-3.526 5.476-7.205v-2.609l-3.783-2.238 3.783-6.806-.093-11.484z"/>
	<path fill="#060606" d="M457.93 222.117v45.276c0 22.414-47.08 91.054-47.08 91.054l21.227-27.578s31.755-33.12 31.755-61.942c0-21.89-5.902-28.975-5.902-46.81z"/>
	<path fill="#4d4d4d" d="M140.291 143.212s74.75 13.025 74.75 82.72l1.049-.693c0-69.427-75.799-82.027-75.799-82.027zm231.42 0s-75.8 12.6-75.8 82.027l1.049.693c0-69.695 74.752-82.72 74.752-82.72z"/>
	<path fill="#404040" d="M138.525 159.752c-2.073-.029-3.256.035-3.256.035s74.75-3.55 74.75 66.145l1.049-.693c0-60.748-58.034-65.3-72.546-65.487zm234.95 0c-14.506.187-72.546 4.74-72.546 65.487l1.053.693c0-69.695 74.752-66.145 74.752-66.145s-1.184-.061-3.259-.035z"/>
	<path fill="#404040" d="M165.404 134.24s54.658 20.403 54.658 101.911l1.05-.693c0-81.794-55.708-101.218-55.708-101.218zm181.195 0s-55.71 19.424-55.71 101.218l1.049.693c0-81.508 54.661-101.91 54.661-101.91z"/>
	<path fill="gray" d="m127.502 241.176-1.732.939 2.16 4.025 1.62 2.244.671 1.661 3.573 4.346 1.918-1.02-1.565-2.594-.195-3.101zm256.996 0-6.45 6.5-.192 3.098-1.568 2.597 1.918 1.02 3.576-4.343.667-1.667 1.621-2.241 2.16-4.025zm-245.524 16.716-4.401.708.67 1.667 3.576 4.343 1.918-1.02-1.568-2.594zm234.052 0-.192 3.1-1.568 2.598 1.915 1.02 3.579-4.343.667-1.667zm-306.213 5.887-3.577 3.568-.67 1.521 4.596-1.399 1.566-2.253zm378.377 0-1.918 1.437 1.566 2.256 4.596 1.396-.67-1.521zM61.86 276.368l.671 1.93 3.573 5.756 1.918-.263-1.568-3.215zm388.28 0-4.594 4.208-1.568 3.215 1.918.263 3.576-5.757zm-250.91-176.25c0 2.099.583 7.066.872 9.383-1.414-1.62-3.323-2.784-3.323-2.784 0 2.778-.417 6.22-.417 6.22l.572-.32s.63-1.88.63-3.97c0 0 2.354 1.594 2.354 3.978l1.673.058c0-.772-.315-1.536-.778-2.247l.017-.009s-.606-5.304-.606-7.397c0 0 6.226 7.508 6.226 11.638l2.358.058c0-3.03-9.575-14.605-9.575-14.605zm113.538 0s-9.575 11.572-9.575 14.609l2.358-.059c0-4.13 6.226-11.64 6.226-11.64 0 2.092-.61 7.397-.61 7.397l.018.009c-.466.71-.775 1.477-.775 2.247l1.67-.058c0-2.382 2.358-3.979 2.358-3.979 0 2.093.627 3.973.627 3.973l.574.32s-.417-3.442-.417-6.22c0 0-1.91 1.166-3.323 2.784.286-2.317.869-7.284.869-9.382z"/>
	<path fill="#2e2e2e" d="M223.178 239.847c0 17.476 16.264 30.502 32.822 30.502v-19.423c-23.18 0-32.822-11.076-32.822-11.076zm65.644 0s-9.642 11.079-32.82 11.079v19.423c16.56 0 32.82-13.029 32.82-30.502z"/>
	<path fill="#1a1a1a" d="m218.52 238.85-6.878 4.652 26.943 38.666-11.921-30.109zm74.962 0-8.149 13.21-11.918 30.108 26.943-38.666z"/>
	<path fill="#2e2e2e" d="M104.677 210.648c-15.331-.227-39.86 11.058-39.86 29.493 0 27.879 36.625 25.075 36.625 11.781 0-18.922 15.272-23.346 15.272-33.413 0-5.276-5.068-7.756-12.037-7.861zm302.646 0c-6.969.105-12.037 2.588-12.037 7.86 0 10.07 15.272 14.492 15.272 33.414 0 13.294 36.626 16.098 36.626-11.78 0-18.436-24.53-29.721-39.86-29.494z"/>
	<path fill="#060606" d="M149.464 195.486c-11.263 0-18.721 11.21-18.721 21.338 0 0 17.759-6.374 46.993-6.374 10.924 0 32.632 19.467 32.632 19.467s2.93 7.301 1.274 13.582l6.878-4.649 8.147 13.21s-7.462-56.574-77.203-56.574zm213.072 0c-69.744 0-77.203 56.573-77.203 56.573l8.15-13.209 6.878 4.652c-1.658-6.284 1.27-13.585 1.27-13.585s21.71-19.467 32.633-19.467c29.234 0 46.996 6.374 46.996 6.374 0-10.128-7.461-21.341-18.724-21.341zM54.07 222.117v45.276c0 22.414 47.08 91.054 47.08 91.054L79.926 330.87s-31.758-33.12-31.758-61.943c0-21.889 5.902-28.974 5.902-46.809z"/>
	<path fill="#212121" d="M94.86 332.416s71.67 67.746 161.14 67.746c89.471 0 161.143-67.743 161.143-67.743s-71.2 62.636-161.143 62.636c-89.253 0-161.14-62.636-161.14-62.636z"/>
	<path d="M177.736 202.89a26.96 25.6 0 0 0-26.96 25.596 26.96 25.6 0 0 0 26.96 25.6 26.96 25.6 0 0 0 26.96-25.6 26.96 25.6 0 0 0-26.96-25.6zm156.528 0a26.96 25.6 0 0 0-26.96 25.596 26.96 25.6 0 0 0 26.96 25.6 26.96 25.6 0 0 0 26.96-25.6 26.96 25.6 0 0 0-26.96-25.6z"/>
	<path fill="#232323" d="M160.32 228.486a26.96 25.6 0 0 0-9.48 1.702 26.96 25.6 0 0 0 26.896 23.897 26.96 25.6 0 0 0 9.42-1.685 26.96 25.6 0 0 0-26.835-23.914zm191.36 0a26.96 25.6 0 0 0-26.836 23.914 26.96 25.6 0 0 0 9.42 1.685 26.96 25.6 0 0 0 26.897-23.897 26.96 25.6 0 0 0-9.482-1.702z"/>
	<path fill="#e2e2e2" d="M183.778 230.173a3.964 3.381 0 0 0-3.967 3.381 3.964 3.381 0 0 0 3.964 3.381 3.964 3.381 0 0 0 3.967-3.38 3.964 3.381 0 0 0-3.964-3.382zm144.447 0a3.964 3.381 0 0 0-3.967 3.381 3.964 3.381 0 0 0 3.964 3.381 3.964 3.381 0 0 0 3.97-3.38 3.964 3.381 0 0 0-3.967-3.382zm-150.976 15.46a1.766 1.74 0 0 0-1.766 1.74 1.766 1.74 0 0 0 1.766 1.74 1.766 1.74 0 0 0 1.766-1.74 1.766 1.74 0 0 0-1.766-1.74zm144.946 0a1.766 1.74 0 0 0-1.767 1.74 1.766 1.74 0 0 0 1.767 1.74 1.766 1.74 0 0 0 1.766-1.74 1.766 1.74 0 0 0-1.766-1.74zM256 288.047a1.755 1.755 0 0 0-1.766 1.74c0 .962.79 1.74 1.766 1.74a1.755 1.755 0 0 0 1.766-1.74 1.755 1.755 0 0 0-1.766-1.74Z"/>
	<path fill="#060606" d="m79.923 330.869-55.274 77.678 71.322 54.155-59.133-55.635 47.626-70.302Zm352.154 0-4.54 5.896 47.625 70.302-59.133 55.635 71.322-54.155z"/>
	<path fill="gray" d="m61.686 415.723 19.647 5.975-8.172 10.146 12.212 6.83-9.464-8.11 7.57-9.542-17.867-6.112 29.248-20.805zm388.628 0-19.647 5.975 8.172 10.146-12.212 6.83 9.464-8.11-7.57-9.542 17.867-6.112-29.248-20.805z"/>
</svg>
