<?xml version="1.0" standalone="no"?>
<!DOCTYPE svg PUBLIC "-//W3C//DTD SVG 20010904//EN"
 "http://www.w3.org/TR/2001/REC-SVG-20010904/DTD/svg10.dtd">
<svg version="1.0" xmlns="http://www.w3.org/2000/svg"
 width="700.000000pt" height="700.000000pt" viewBox="0 0 700.000000 700.000000"
 preserveAspectRatio="xMidYMid meet">
<metadata>
Created by potrace 1.14, written by Peter Selinger 2001-2017
</metadata>
<g transform="translate(0.000000,700.000000) scale(0.100000,-0.100000)"
fill="#000000" stroke="none">
<path d="M717 6982 c-36 -24 -72 -75 -94 -131 -16 -40 -18 -81 -18 -306 0
-229 7 -469 20 -660 4 -63 12 -207 20 -360 3 -49 7 -121 10 -160 3 -38 7 -110
10 -160 3 -49 7 -119 10 -155 4 -62 11 -161 20 -300 2 -36 7 -101 9 -145 3
-44 8 -118 11 -165 3 -47 7 -121 10 -165 19 -305 13 -412 -34 -633 -27 -130
-38 -264 -29 -371 16 -198 132 -431 352 -705 39 -49 70 -92 69 -96 -1 -5 -143
-205 -314 -447 -172 -241 -339 -475 -371 -520 -55 -78 -68 -103 -50 -103 4 0
19 -9 32 -20 14 -11 90 -69 170 -130 718 -546 656 -499 766 -576 236 -165 763
-405 1114 -507 129 -38 215 -61 270 -72 3 0 23 -5 45 -10 22 -4 43 -8 47 -7 4
1 18 -2 30 -7 13 -5 45 -12 72 -15 27 -4 52 -9 55 -10 3 -2 33 -7 66 -11 33
-4 71 -9 85 -10 185 -26 645 -26 800 -1 14 3 45 7 70 10 201 26 453 85 680
158 118 38 281 97 325 118 11 5 65 28 120 51 239 101 536 267 690 384 157 120
423 322 610 463 105 79 208 158 229 176 l40 32 -199 280 c-109 153 -230 323
-269 378 -84 117 -139 195 -222 313 l-62 88 70 85 c161 197 295 433 338 595
33 131 28 307 -15 510 -13 61 -28 135 -34 165 -9 52 -7 305 3 440 3 36 8 119
11 185 4 66 8 131 10 145 2 14 7 79 10 145 4 66 8 138 10 160 2 22 6 90 10
150 3 61 8 128 10 150 2 22 6 96 10 165 3 69 8 143 10 165 2 22 7 101 10 175
3 74 8 149 10 165 10 77 20 426 20 671 l0 270 -33 66 c-55 107 -107 131 -239
109 -325 -57 -780 -344 -1233 -778 l-125 -120 -105 28 c-115 32 -405 93 -515
109 -417 61 -750 69 -1105 25 -217 -27 -508 -83 -696 -133 l-110 -30 -105 102
c-458 444 -928 744 -1249 795 -93 15 -131 13 -163 -7z"/>
</g>
</svg>
